<mxfile host="app.diagrams.net" agent="Mozilla/5.0 (Windows NT 10.0; Win64; x64) AppleWebKit/537.36 (KHTML, like Gecko) Chrome/127.0.0.0 Safari/537.36" scale="1" border="0" version="24.7.6">
  <diagram name="Page-1" id="pOTJh6Gmkrrjs8nXd67U">
    <mxGraphModel dx="2577" dy="948" grid="1" gridSize="10" guides="1" tooltips="1" connect="1" arrows="1" fold="1" page="1" pageScale="1" pageWidth="827" pageHeight="1169" background="none" math="0" shadow="0">
      <root>
        <mxCell id="0" />
        <mxCell id="1" parent="0" />
        <mxCell id="Tc9TYvNH5LjF7Kcl3xUn-25" value="" style="rounded=0;whiteSpace=wrap;html=1;" vertex="1" parent="1">
          <mxGeometry x="-680" y="100" width="1570" height="2660" as="geometry" />
        </mxCell>
        <mxCell id="hoAG8G_czNnAWnfQapLx-1" value="&lt;font style=&quot;font-size: 17px;&quot;&gt;System&lt;/font&gt;" style="swimlane;whiteSpace=wrap;html=1;startSize=30;movable=1;resizable=1;rotatable=1;deletable=1;editable=1;locked=0;connectable=1;" parent="1" vertex="1">
          <mxGeometry x="-199" y="129" width="479" height="2601" as="geometry" />
        </mxCell>
        <mxCell id="BzNI8jAwV_w6Acf8yemZ-17" value="&lt;font style=&quot;font-size: 14.04px;&quot;&gt;&lt;b&gt;&lt;span style=&quot;forced-color-adjust: none; color: rgb(0, 0, 0); font-family: Helvetica; font-style: normal; font-variant-ligatures: normal; font-variant-caps: normal; letter-spacing: normal; orphans: 2; text-align: center; text-indent: 0px; text-transform: none; widows: 2; word-spacing: 0px; -webkit-text-stroke-width: 0px; white-space: normal; background-color: rgb(251, 251, 251); text-decoration-thickness: initial; text-decoration-style: initial; text-decoration-color: initial;&quot;&gt;&lt;font style=&quot;forced-color-adjust: none; font-size: 14.04px;&quot;&gt;Prompt name, email, password, location &amp;amp; contact details&lt;/font&gt;&lt;/span&gt;&lt;/b&gt;&lt;br&gt;&lt;/font&gt;" style="rounded=1;whiteSpace=wrap;html=1;movable=1;resizable=1;rotatable=1;deletable=1;editable=1;locked=0;connectable=1;" parent="hoAG8G_czNnAWnfQapLx-1" vertex="1">
          <mxGeometry x="159" y="143" width="250" height="49" as="geometry" />
        </mxCell>
        <mxCell id="BzNI8jAwV_w6Acf8yemZ-33" value="" style="shape=line;html=1;strokeWidth=6;strokeColor=#ff0000;align=center;verticalAlign=middle;fontFamily=Helvetica;fontSize=12;fontColor=default;fontStyle=1;fillColor=default;movable=1;resizable=1;rotatable=1;deletable=1;editable=1;locked=0;connectable=1;" parent="hoAG8G_czNnAWnfQapLx-1" vertex="1">
          <mxGeometry x="248" y="209" width="70" height="10" as="geometry" />
        </mxCell>
        <mxCell id="BzNI8jAwV_w6Acf8yemZ-34" value="" style="edgeStyle=orthogonalEdgeStyle;html=1;verticalAlign=bottom;endArrow=open;endSize=8;strokeColor=#ff0000;rounded=0;fontFamily=Helvetica;fontSize=12;fontColor=default;fontStyle=1;exitX=0.5;exitY=1;exitDx=0;exitDy=0;entryX=0.513;entryY=0.656;entryDx=0;entryDy=0;entryPerimeter=0;movable=0;resizable=0;rotatable=0;deletable=0;editable=0;locked=1;connectable=0;" parent="hoAG8G_czNnAWnfQapLx-1" source="BzNI8jAwV_w6Acf8yemZ-17" target="BzNI8jAwV_w6Acf8yemZ-33" edge="1">
          <mxGeometry relative="1" as="geometry">
            <mxPoint x="211" y="308" as="targetPoint" />
          </mxGeometry>
        </mxCell>
        <mxCell id="BzNI8jAwV_w6Acf8yemZ-45" value="" style="rhombus;whiteSpace=wrap;html=1;fontColor=#000000;fillColor=#ffffc0;strokeColor=#ff0000;align=center;verticalAlign=middle;fontFamily=Helvetica;fontSize=12;fontStyle=1;movable=1;resizable=1;rotatable=1;deletable=1;editable=1;locked=0;connectable=1;" parent="hoAG8G_czNnAWnfQapLx-1" vertex="1">
          <mxGeometry x="187" y="368" width="38" height="39" as="geometry" />
        </mxCell>
        <mxCell id="BzNI8jAwV_w6Acf8yemZ-46" value="no" style="edgeStyle=orthogonalEdgeStyle;html=1;align=left;verticalAlign=bottom;endArrow=open;endSize=8;strokeColor=#ff0000;rounded=0;fontFamily=Helvetica;fontSize=12;fontColor=default;fontStyle=1;entryX=0;entryY=0.5;entryDx=0;entryDy=0;movable=1;resizable=1;rotatable=1;deletable=1;editable=1;locked=0;connectable=1;" parent="hoAG8G_czNnAWnfQapLx-1" source="BzNI8jAwV_w6Acf8yemZ-45" target="BzNI8jAwV_w6Acf8yemZ-49" edge="1">
          <mxGeometry x="-1" relative="1" as="geometry">
            <mxPoint x="394" y="391" as="targetPoint" />
          </mxGeometry>
        </mxCell>
        <mxCell id="BzNI8jAwV_w6Acf8yemZ-40" value="" style="shape=line;html=1;strokeWidth=6;strokeColor=#ff0000;align=center;verticalAlign=middle;fontFamily=Helvetica;fontSize=12;fontColor=default;fontStyle=1;fillColor=default;movable=0;resizable=0;rotatable=0;deletable=0;editable=0;locked=1;connectable=0;" parent="hoAG8G_czNnAWnfQapLx-1" vertex="1">
          <mxGeometry x="176.5" y="297" width="60" height="10" as="geometry" />
        </mxCell>
        <mxCell id="BzNI8jAwV_w6Acf8yemZ-41" value="" style="edgeStyle=orthogonalEdgeStyle;html=1;verticalAlign=bottom;endArrow=open;endSize=8;strokeColor=#ff0000;rounded=0;fontFamily=Helvetica;fontSize=12;fontColor=default;fontStyle=1;entryX=0.5;entryY=0;entryDx=0;entryDy=0;movable=1;resizable=1;rotatable=1;deletable=1;editable=1;locked=0;connectable=1;" parent="hoAG8G_czNnAWnfQapLx-1" target="BzNI8jAwV_w6Acf8yemZ-45" edge="1">
          <mxGeometry relative="1" as="geometry">
            <mxPoint x="184" y="381" as="targetPoint" />
            <mxPoint x="206" y="301" as="sourcePoint" />
          </mxGeometry>
        </mxCell>
        <mxCell id="BzNI8jAwV_w6Acf8yemZ-50" value="&lt;h3&gt;Create user account&lt;/h3&gt;" style="rounded=1;whiteSpace=wrap;html=1;movable=1;resizable=1;rotatable=1;deletable=1;editable=1;locked=0;connectable=1;" parent="hoAG8G_czNnAWnfQapLx-1" vertex="1">
          <mxGeometry x="146" y="488" width="120" height="40" as="geometry" />
        </mxCell>
        <mxCell id="BzNI8jAwV_w6Acf8yemZ-49" value="&lt;h3&gt;Request correction&lt;/h3&gt;" style="rounded=1;whiteSpace=wrap;html=1;movable=1;resizable=1;rotatable=1;deletable=1;editable=1;locked=0;connectable=1;" parent="hoAG8G_czNnAWnfQapLx-1" vertex="1">
          <mxGeometry x="311" y="367" width="120" height="40" as="geometry" />
        </mxCell>
        <mxCell id="BzNI8jAwV_w6Acf8yemZ-51" value="[ if valid ]" style="text;html=1;align=center;verticalAlign=middle;resizable=1;points=[];autosize=1;strokeColor=none;fillColor=none;fontFamily=Helvetica;fontSize=12;fontColor=default;fontStyle=1;movable=1;rotatable=1;deletable=1;editable=1;locked=0;connectable=1;" parent="hoAG8G_czNnAWnfQapLx-1" vertex="1">
          <mxGeometry x="135" y="337" width="70" height="30" as="geometry" />
        </mxCell>
        <mxCell id="BzNI8jAwV_w6Acf8yemZ-48" value="&lt;h3&gt;Send verification email&lt;/h3&gt;" style="rounded=1;whiteSpace=wrap;html=1;movable=0;resizable=0;rotatable=0;deletable=0;editable=0;locked=1;connectable=0;" parent="hoAG8G_czNnAWnfQapLx-1" vertex="1">
          <mxGeometry x="336" y="488" width="120" height="40" as="geometry" />
        </mxCell>
        <mxCell id="BzNI8jAwV_w6Acf8yemZ-53" value="" style="edgeStyle=orthogonalEdgeStyle;rounded=0;orthogonalLoop=1;jettySize=auto;html=1;fontFamily=Helvetica;fontSize=12;fontColor=default;fontStyle=1;entryX=0;entryY=0.5;entryDx=0;entryDy=0;" parent="hoAG8G_czNnAWnfQapLx-1" source="BzNI8jAwV_w6Acf8yemZ-50" target="BzNI8jAwV_w6Acf8yemZ-48" edge="1">
          <mxGeometry relative="1" as="geometry">
            <mxPoint x="91" y="573.0000000000002" as="targetPoint" />
          </mxGeometry>
        </mxCell>
        <mxCell id="hoAG8G_czNnAWnfQapLx-21" value="&lt;h3&gt;Display Seeker&#39;s dashboard&lt;/h3&gt;" style="rounded=1;whiteSpace=wrap;html=1;" parent="hoAG8G_czNnAWnfQapLx-1" vertex="1">
          <mxGeometry x="73" y="796.25" width="160" height="40" as="geometry" />
        </mxCell>
        <mxCell id="BzNI8jAwV_w6Acf8yemZ-67" value="" style="shape=line;html=1;strokeWidth=6;strokeColor=#ff0000;align=center;verticalAlign=middle;fontFamily=Helvetica;fontSize=12;fontColor=default;fontStyle=1;fillColor=default;" parent="hoAG8G_czNnAWnfQapLx-1" vertex="1">
          <mxGeometry x="360.5" y="561" width="70" height="10" as="geometry" />
        </mxCell>
        <mxCell id="BzNI8jAwV_w6Acf8yemZ-68" value="" style="edgeStyle=orthogonalEdgeStyle;html=1;verticalAlign=bottom;endArrow=open;endSize=8;strokeColor=#ff0000;rounded=0;fontFamily=Helvetica;fontSize=12;fontColor=default;fontStyle=1;exitX=0.5;exitY=1;exitDx=0;exitDy=0;entryX=0.513;entryY=0.656;entryDx=0;entryDy=0;entryPerimeter=0;" parent="hoAG8G_czNnAWnfQapLx-1" source="BzNI8jAwV_w6Acf8yemZ-48" target="BzNI8jAwV_w6Acf8yemZ-67" edge="1">
          <mxGeometry relative="1" as="geometry">
            <mxPoint x="221" y="318" as="targetPoint" />
            <mxPoint x="184" y="203" as="sourcePoint" />
          </mxGeometry>
        </mxCell>
        <mxCell id="BzNI8jAwV_w6Acf8yemZ-91" value="" style="edgeStyle=orthogonalEdgeStyle;rounded=0;orthogonalLoop=1;jettySize=auto;html=1;fontFamily=Helvetica;fontSize=12;fontColor=default;fontStyle=1;" parent="hoAG8G_czNnAWnfQapLx-1" source="BzNI8jAwV_w6Acf8yemZ-85" target="BzNI8jAwV_w6Acf8yemZ-90" edge="1">
          <mxGeometry relative="1" as="geometry" />
        </mxCell>
        <mxCell id="BzNI8jAwV_w6Acf8yemZ-85" value="&lt;h3&gt;Verify email address&lt;/h3&gt;" style="rounded=1;whiteSpace=wrap;html=1;" parent="hoAG8G_czNnAWnfQapLx-1" vertex="1">
          <mxGeometry x="156.63" y="685" width="123.75" height="40" as="geometry" />
        </mxCell>
        <mxCell id="BzNI8jAwV_w6Acf8yemZ-90" value="&lt;h3&gt;Activate user account&lt;/h3&gt;" style="rounded=1;whiteSpace=wrap;html=1;" parent="hoAG8G_czNnAWnfQapLx-1" vertex="1">
          <mxGeometry x="341" y="685" width="123.75" height="40" as="geometry" />
        </mxCell>
        <mxCell id="BzNI8jAwV_w6Acf8yemZ-102" value="&lt;h3&gt;Prompt qualification documents/certifications&lt;/h3&gt;" style="rounded=1;whiteSpace=wrap;html=1;" parent="hoAG8G_czNnAWnfQapLx-1" vertex="1">
          <mxGeometry x="257" y="848" width="181" height="49" as="geometry" />
        </mxCell>
        <mxCell id="hoAG8G_czNnAWnfQapLx-10" value="&lt;h3&gt;Retrieve and display service categories&lt;/h3&gt;" style="rounded=1;whiteSpace=wrap;html=1;" parent="hoAG8G_czNnAWnfQapLx-1" vertex="1">
          <mxGeometry x="67.38" y="913" width="150" height="53" as="geometry" />
        </mxCell>
        <mxCell id="hoAG8G_czNnAWnfQapLx-71" value="&lt;h3&gt;Filter Service Providers by location&lt;/h3&gt;" style="rounded=1;whiteSpace=wrap;html=1;" parent="hoAG8G_czNnAWnfQapLx-1" vertex="1">
          <mxGeometry x="21.630000000000003" y="1254" width="124" height="54" as="geometry" />
        </mxCell>
        <mxCell id="BzNI8jAwV_w6Acf8yemZ-128" value="" style="rhombus;whiteSpace=wrap;html=1;fontColor=#000000;fillColor=#ffffc0;strokeColor=#ff0000;align=center;verticalAlign=middle;fontFamily=Helvetica;fontSize=12;fontStyle=1;" parent="hoAG8G_czNnAWnfQapLx-1" vertex="1">
          <mxGeometry x="181" y="1261.5" width="42" height="41" as="geometry" />
        </mxCell>
        <mxCell id="BzNI8jAwV_w6Acf8yemZ-129" value="[ if matched&amp;nbsp;&lt;span style=&quot;background-color: initial;&quot;&gt;]&lt;/span&gt;" style="text;html=1;align=center;verticalAlign=middle;resizable=0;points=[];autosize=1;strokeColor=none;fillColor=none;fontFamily=Helvetica;fontSize=12;fontColor=default;fontStyle=1;" parent="hoAG8G_czNnAWnfQapLx-1" vertex="1">
          <mxGeometry x="156" y="1236" width="90" height="30" as="geometry" />
        </mxCell>
        <mxCell id="BzNI8jAwV_w6Acf8yemZ-130" value="" style="edgeStyle=orthogonalEdgeStyle;html=1;verticalAlign=bottom;endArrow=open;endSize=8;strokeColor=#ff0000;rounded=0;fontFamily=Helvetica;fontSize=12;fontColor=default;fontStyle=1;exitX=0.5;exitY=1;exitDx=0;exitDy=0;entryX=0.5;entryY=0;entryDx=0;entryDy=0;" parent="hoAG8G_czNnAWnfQapLx-1" source="BzNI8jAwV_w6Acf8yemZ-128" target="hoAG8G_czNnAWnfQapLx-11" edge="1">
          <mxGeometry relative="1" as="geometry">
            <mxPoint x="202" y="1351" as="targetPoint" />
            <mxPoint x="103.5" y="1389" as="sourcePoint" />
          </mxGeometry>
        </mxCell>
        <mxCell id="BzNI8jAwV_w6Acf8yemZ-131" value="yes" style="edgeLabel;html=1;align=center;verticalAlign=middle;resizable=0;points=[];strokeColor=default;fontFamily=Helvetica;fontSize=12;fontColor=default;fontStyle=1;fillColor=default;" parent="BzNI8jAwV_w6Acf8yemZ-130" vertex="1" connectable="0">
          <mxGeometry x="-0.2313" y="-2" relative="1" as="geometry">
            <mxPoint x="47" y="-62" as="offset" />
          </mxGeometry>
        </mxCell>
        <mxCell id="BzNI8jAwV_w6Acf8yemZ-132" value="no" style="edgeLabel;html=1;align=center;verticalAlign=middle;resizable=0;points=[];strokeColor=default;fontFamily=Helvetica;fontSize=12;fontColor=default;fontStyle=1;fillColor=default;" parent="BzNI8jAwV_w6Acf8yemZ-130" vertex="1" connectable="0">
          <mxGeometry x="-0.1675" y="-4" relative="1" as="geometry">
            <mxPoint x="-12" y="-19" as="offset" />
          </mxGeometry>
        </mxCell>
        <mxCell id="BzNI8jAwV_w6Acf8yemZ-133" value="" style="edgeStyle=orthogonalEdgeStyle;html=1;verticalAlign=bottom;endArrow=open;endSize=8;strokeColor=#ff0000;rounded=0;fontFamily=Helvetica;fontSize=12;fontColor=default;fontStyle=1;exitX=1;exitY=0.5;exitDx=0;exitDy=0;entryX=0.75;entryY=0.5;entryDx=0;entryDy=0;entryPerimeter=0;" parent="hoAG8G_czNnAWnfQapLx-1" source="BzNI8jAwV_w6Acf8yemZ-128" target="BzNI8jAwV_w6Acf8yemZ-357" edge="1">
          <mxGeometry relative="1" as="geometry">
            <mxPoint x="259" y="1320" as="targetPoint" />
            <mxPoint x="118.5" y="1379" as="sourcePoint" />
          </mxGeometry>
        </mxCell>
        <mxCell id="BzNI8jAwV_w6Acf8yemZ-134" value="" style="edgeStyle=orthogonalEdgeStyle;html=1;verticalAlign=bottom;endArrow=open;endSize=8;strokeColor=#ff0000;rounded=0;fontFamily=Helvetica;fontSize=12;fontColor=default;fontStyle=1;entryX=0;entryY=0.5;entryDx=0;entryDy=0;exitX=1;exitY=0.5;exitDx=0;exitDy=0;" parent="hoAG8G_czNnAWnfQapLx-1" source="hoAG8G_czNnAWnfQapLx-71" target="BzNI8jAwV_w6Acf8yemZ-128" edge="1">
          <mxGeometry relative="1" as="geometry">
            <mxPoint x="-149" y="1229" as="targetPoint" />
            <mxPoint x="229" y="1300" as="sourcePoint" />
          </mxGeometry>
        </mxCell>
        <mxCell id="BzNI8jAwV_w6Acf8yemZ-136" value="" style="rhombus;whiteSpace=wrap;html=1;fontColor=#000000;fillColor=#ffffc0;strokeColor=#ff0000;align=center;verticalAlign=middle;fontFamily=Helvetica;fontSize=12;fontStyle=1;" parent="hoAG8G_czNnAWnfQapLx-1" vertex="1">
          <mxGeometry x="210" y="998" width="42" height="41" as="geometry" />
        </mxCell>
        <mxCell id="BzNI8jAwV_w6Acf8yemZ-137" value="" style="edgeStyle=orthogonalEdgeStyle;html=1;verticalAlign=bottom;endArrow=open;endSize=8;strokeColor=#ff0000;rounded=0;fontFamily=Helvetica;fontSize=12;fontColor=default;fontStyle=1;exitX=1;exitY=0.5;exitDx=0;exitDy=0;entryX=0.5;entryY=0;entryDx=0;entryDy=0;" parent="hoAG8G_czNnAWnfQapLx-1" source="BzNI8jAwV_w6Acf8yemZ-136" target="BzNI8jAwV_w6Acf8yemZ-143" edge="1">
          <mxGeometry relative="1" as="geometry">
            <mxPoint x="314" y="1051" as="targetPoint" />
            <mxPoint x="314.99" y="1068" as="sourcePoint" />
          </mxGeometry>
        </mxCell>
        <mxCell id="BzNI8jAwV_w6Acf8yemZ-138" value="yes" style="edgeLabel;html=1;align=center;verticalAlign=middle;resizable=0;points=[];strokeColor=default;fontFamily=Helvetica;fontSize=12;fontColor=default;fontStyle=1;fillColor=default;" parent="BzNI8jAwV_w6Acf8yemZ-137" vertex="1" connectable="0">
          <mxGeometry x="-0.2313" y="-2" relative="1" as="geometry">
            <mxPoint x="-134" y="41" as="offset" />
          </mxGeometry>
        </mxCell>
        <mxCell id="BzNI8jAwV_w6Acf8yemZ-139" value="no" style="edgeLabel;html=1;align=center;verticalAlign=middle;resizable=0;points=[];strokeColor=default;fontFamily=Helvetica;fontSize=12;fontColor=default;fontStyle=1;fillColor=default;" parent="BzNI8jAwV_w6Acf8yemZ-137" vertex="1" connectable="0">
          <mxGeometry x="-0.1675" y="-4" relative="1" as="geometry">
            <mxPoint x="-14" y="9" as="offset" />
          </mxGeometry>
        </mxCell>
        <mxCell id="BzNI8jAwV_w6Acf8yemZ-140" value="" style="edgeStyle=orthogonalEdgeStyle;html=1;verticalAlign=bottom;endArrow=open;endSize=8;strokeColor=#ff0000;rounded=0;fontFamily=Helvetica;fontSize=12;fontColor=default;fontStyle=1;exitX=0;exitY=0.5;exitDx=0;exitDy=0;entryX=0.5;entryY=0;entryDx=0;entryDy=0;" parent="hoAG8G_czNnAWnfQapLx-1" source="BzNI8jAwV_w6Acf8yemZ-136" target="hoAG8G_czNnAWnfQapLx-14" edge="1">
          <mxGeometry relative="1" as="geometry">
            <mxPoint x="124" y="1058" as="targetPoint" />
            <mxPoint x="329.99" y="1058" as="sourcePoint" />
          </mxGeometry>
        </mxCell>
        <mxCell id="hoAG8G_czNnAWnfQapLx-14" value="&lt;h3&gt;Notify account is verified&lt;/h3&gt;" style="rounded=1;whiteSpace=wrap;html=1;" parent="hoAG8G_czNnAWnfQapLx-1" vertex="1">
          <mxGeometry x="69" y="1114" width="121" height="50" as="geometry" />
        </mxCell>
        <mxCell id="BzNI8jAwV_w6Acf8yemZ-143" value="&lt;h3&gt;Notify account cannot be verified&lt;/h3&gt;" style="rounded=1;whiteSpace=wrap;html=1;" parent="hoAG8G_czNnAWnfQapLx-1" vertex="1">
          <mxGeometry x="242" y="1048" width="116" height="59" as="geometry" />
        </mxCell>
        <mxCell id="BzNI8jAwV_w6Acf8yemZ-142" value="[ if verified&lt;span style=&quot;background-color: initial;&quot;&gt;&amp;nbsp;]&lt;/span&gt;" style="text;html=1;align=center;verticalAlign=middle;resizable=0;points=[];autosize=1;strokeColor=none;fillColor=none;fontFamily=Helvetica;fontSize=12;fontColor=default;fontStyle=1;" parent="hoAG8G_czNnAWnfQapLx-1" vertex="1">
          <mxGeometry x="246.5" y="978" width="80" height="30" as="geometry" />
        </mxCell>
        <mxCell id="hoAG8G_czNnAWnfQapLx-11" value="&lt;h3&gt;Notify Service Seeker&lt;/h3&gt;" style="rounded=1;whiteSpace=wrap;html=1;" parent="hoAG8G_czNnAWnfQapLx-1" vertex="1">
          <mxGeometry x="142" y="1385" width="120" height="40" as="geometry" />
        </mxCell>
        <mxCell id="BzNI8jAwV_w6Acf8yemZ-149" value="&lt;h3&gt;Notify Service Providers&lt;/h3&gt;" style="rounded=1;whiteSpace=wrap;html=1;" parent="hoAG8G_czNnAWnfQapLx-1" vertex="1">
          <mxGeometry x="344" y="1307" width="120" height="40" as="geometry" />
        </mxCell>
        <mxCell id="BzNI8jAwV_w6Acf8yemZ-150" value="&lt;h3&gt;Display Provider&#39;s dashboard&lt;/h3&gt;" style="rounded=1;whiteSpace=wrap;html=1;" parent="hoAG8G_czNnAWnfQapLx-1" vertex="1">
          <mxGeometry x="303" y="1163" width="160" height="40" as="geometry" />
        </mxCell>
        <mxCell id="hoAG8G_czNnAWnfQapLx-54" value="&lt;h3&gt;Close Service Request&lt;/h3&gt;" style="rounded=1;whiteSpace=wrap;html=1;" parent="hoAG8G_czNnAWnfQapLx-1" vertex="1">
          <mxGeometry x="186" y="2487" width="105" height="40" as="geometry" />
        </mxCell>
        <mxCell id="BzNI8jAwV_w6Acf8yemZ-216" value="&lt;h3&gt;Connect via call/message&lt;/h3&gt;" style="rounded=1;whiteSpace=wrap;html=1;" parent="hoAG8G_czNnAWnfQapLx-1" vertex="1">
          <mxGeometry x="208" y="1571.5" width="117" height="49" as="geometry" />
        </mxCell>
        <mxCell id="BzNI8jAwV_w6Acf8yemZ-211" value="&lt;h3&gt;Notify Service Seeker &quot;Rejected&quot;&lt;/h3&gt;" style="rounded=1;whiteSpace=wrap;html=1;" parent="hoAG8G_czNnAWnfQapLx-1" vertex="1">
          <mxGeometry x="321" y="2346" width="129" height="40" as="geometry" />
        </mxCell>
        <mxCell id="BzNI8jAwV_w6Acf8yemZ-231" value="&lt;h3&gt;Update and display Service Provider&#39;s location&lt;/h3&gt;" style="rounded=1;whiteSpace=wrap;html=1;" parent="hoAG8G_czNnAWnfQapLx-1" vertex="1">
          <mxGeometry x="248" y="1689" width="156.5" height="56" as="geometry" />
        </mxCell>
        <mxCell id="BzNI8jAwV_w6Acf8yemZ-238" value="" style="edgeStyle=orthogonalEdgeStyle;rounded=0;orthogonalLoop=1;jettySize=auto;html=1;fontFamily=Helvetica;fontSize=12;fontColor=default;fontStyle=1;" parent="hoAG8G_czNnAWnfQapLx-1" source="BzNI8jAwV_w6Acf8yemZ-235" target="BzNI8jAwV_w6Acf8yemZ-237" edge="1">
          <mxGeometry relative="1" as="geometry" />
        </mxCell>
        <mxCell id="BzNI8jAwV_w6Acf8yemZ-235" value="&lt;h3&gt;Display Service Provider has arrived&lt;/h3&gt;" style="rounded=1;whiteSpace=wrap;html=1;" parent="hoAG8G_czNnAWnfQapLx-1" vertex="1">
          <mxGeometry x="72" y="1741" width="147" height="40" as="geometry" />
        </mxCell>
        <mxCell id="BzNI8jAwV_w6Acf8yemZ-237" value="&lt;h3&gt;Start timer&lt;/h3&gt;" style="rounded=1;whiteSpace=wrap;html=1;" parent="hoAG8G_czNnAWnfQapLx-1" vertex="1">
          <mxGeometry x="85" y="1807" width="120" height="30" as="geometry" />
        </mxCell>
        <mxCell id="BzNI8jAwV_w6Acf8yemZ-257" value="&lt;h3&gt;Display amount to Service Seeker&lt;/h3&gt;" style="rounded=1;whiteSpace=wrap;html=1;" parent="hoAG8G_czNnAWnfQapLx-1" vertex="1">
          <mxGeometry x="325" y="2014" width="123" height="45" as="geometry" />
        </mxCell>
        <mxCell id="BzNI8jAwV_w6Acf8yemZ-311" value="&lt;h3&gt;Notify Service Seeker &quot;Accepted&quot;&lt;/h3&gt;" style="rounded=1;whiteSpace=wrap;html=1;" parent="hoAG8G_czNnAWnfQapLx-1" vertex="1">
          <mxGeometry x="329" y="1484" width="129" height="40" as="geometry" />
        </mxCell>
        <mxCell id="BzNI8jAwV_w6Acf8yemZ-317" value="&lt;h3&gt;Stop timer&lt;/h3&gt;" style="rounded=1;whiteSpace=wrap;html=1;" parent="hoAG8G_czNnAWnfQapLx-1" vertex="1">
          <mxGeometry x="343.25" y="1906" width="120" height="30" as="geometry" />
        </mxCell>
        <mxCell id="BzNI8jAwV_w6Acf8yemZ-321" value="&lt;h3&gt;Display option to Rate Service Provider&lt;/h3&gt;" style="rounded=1;whiteSpace=wrap;html=1;" parent="hoAG8G_czNnAWnfQapLx-1" vertex="1">
          <mxGeometry x="210" y="2119" width="174" height="41" as="geometry" />
        </mxCell>
        <mxCell id="BzNI8jAwV_w6Acf8yemZ-327" value="" style="rhombus;whiteSpace=wrap;html=1;fontColor=#000000;fillColor=#ffffc0;strokeColor=#ff0000;align=center;verticalAlign=middle;fontFamily=Helvetica;fontSize=12;fontStyle=1;" parent="hoAG8G_czNnAWnfQapLx-1" vertex="1">
          <mxGeometry x="-91.37" y="2120" width="44.37" height="40" as="geometry" />
        </mxCell>
        <mxCell id="BzNI8jAwV_w6Acf8yemZ-331" value="" style="edgeStyle=orthogonalEdgeStyle;html=1;align=left;verticalAlign=top;endArrow=open;endSize=8;strokeColor=#ff0000;rounded=0;fontFamily=Helvetica;fontSize=12;fontColor=default;fontStyle=1;exitX=0;exitY=0.5;exitDx=0;exitDy=0;entryX=1;entryY=0.5;entryDx=0;entryDy=0;" parent="hoAG8G_czNnAWnfQapLx-1" source="BzNI8jAwV_w6Acf8yemZ-321" target="BzNI8jAwV_w6Acf8yemZ-327" edge="1">
          <mxGeometry x="-0.4264" y="30" relative="1" as="geometry">
            <mxPoint x="-151" y="2290" as="targetPoint" />
            <mxPoint x="76" y="2290" as="sourcePoint" />
            <mxPoint as="offset" />
          </mxGeometry>
        </mxCell>
        <mxCell id="BzNI8jAwV_w6Acf8yemZ-332" value="[ if selected&lt;span style=&quot;background-color: initial;&quot;&gt;&amp;nbsp;&lt;/span&gt;&lt;span style=&quot;background-color: initial;&quot;&gt;]&lt;/span&gt;" style="text;html=1;align=center;verticalAlign=middle;resizable=0;points=[];autosize=1;strokeColor=none;fillColor=none;fontFamily=Helvetica;fontSize=12;fontColor=default;fontStyle=1;" parent="hoAG8G_czNnAWnfQapLx-1" vertex="1">
          <mxGeometry x="-94.25" y="2098" width="90" height="30" as="geometry" />
        </mxCell>
        <mxCell id="BzNI8jAwV_w6Acf8yemZ-337" value="" style="rhombus;whiteSpace=wrap;html=1;fontColor=#000000;fillColor=#ffffc0;strokeColor=#ff0000;align=center;verticalAlign=middle;fontFamily=Helvetica;fontSize=12;fontStyle=1;" parent="hoAG8G_czNnAWnfQapLx-1" vertex="1">
          <mxGeometry x="105.63" y="2150" width="44.37" height="40" as="geometry" />
        </mxCell>
        <mxCell id="BzNI8jAwV_w6Acf8yemZ-328" value="no" style="edgeStyle=orthogonalEdgeStyle;html=1;align=left;verticalAlign=bottom;endArrow=open;endSize=8;strokeColor=#ff0000;rounded=0;fontFamily=Helvetica;fontSize=12;fontColor=default;fontStyle=1;exitX=0.5;exitY=1;exitDx=0;exitDy=0;entryX=0;entryY=0.5;entryDx=0;entryDy=0;" parent="hoAG8G_czNnAWnfQapLx-1" source="BzNI8jAwV_w6Acf8yemZ-327" target="BzNI8jAwV_w6Acf8yemZ-337" edge="1">
          <mxGeometry x="-0.7761" y="-21" relative="1" as="geometry">
            <mxPoint x="65" y="2330" as="targetPoint" />
            <mxPoint as="offset" />
          </mxGeometry>
        </mxCell>
        <mxCell id="BzNI8jAwV_w6Acf8yemZ-339" value="" style="edgeStyle=orthogonalEdgeStyle;html=1;align=left;verticalAlign=bottom;endArrow=open;endSize=8;strokeColor=#ff0000;rounded=0;fontFamily=Helvetica;fontSize=12;fontColor=default;fontStyle=1;exitX=1;exitY=0.5;exitDx=0;exitDy=0;entryX=0.504;entryY=0.272;entryDx=0;entryDy=0;entryPerimeter=0;" parent="hoAG8G_czNnAWnfQapLx-1" source="BzNI8jAwV_w6Acf8yemZ-337" target="BzNI8jAwV_w6Acf8yemZ-340" edge="1">
          <mxGeometry x="1" y="-267" relative="1" as="geometry">
            <mxPoint x="85" y="2360" as="targetPoint" />
            <mxPoint x="85" y="2311" as="sourcePoint" />
            <mxPoint x="61" y="170" as="offset" />
            <Array as="points">
              <mxPoint x="239" y="2170" />
              <mxPoint x="239" y="2191" />
            </Array>
          </mxGeometry>
        </mxCell>
        <mxCell id="BzNI8jAwV_w6Acf8yemZ-340" value="" style="shape=line;html=1;strokeWidth=6;strokeColor=#ff0000;align=center;verticalAlign=middle;fontFamily=Helvetica;fontSize=12;fontColor=default;fontStyle=1;fillColor=default;" parent="hoAG8G_czNnAWnfQapLx-1" vertex="1">
          <mxGeometry x="148" y="2442" width="180" height="10" as="geometry" />
        </mxCell>
        <mxCell id="BzNI8jAwV_w6Acf8yemZ-344" value="" style="edgeStyle=orthogonalEdgeStyle;html=1;align=left;verticalAlign=bottom;endArrow=open;endSize=8;strokeColor=#ff0000;rounded=0;fontFamily=Helvetica;fontSize=12;fontColor=default;fontStyle=1;exitX=0.504;exitY=0.54;exitDx=0;exitDy=0;entryX=0.5;entryY=0;entryDx=0;entryDy=0;exitPerimeter=0;" parent="hoAG8G_czNnAWnfQapLx-1" source="BzNI8jAwV_w6Acf8yemZ-340" target="hoAG8G_czNnAWnfQapLx-54" edge="1">
          <mxGeometry x="1" y="-400" relative="1" as="geometry">
            <mxPoint x="213" y="2387" as="targetPoint" />
            <mxPoint x="213" y="2359" as="sourcePoint" />
            <mxPoint x="286" y="383" as="offset" />
          </mxGeometry>
        </mxCell>
        <mxCell id="BzNI8jAwV_w6Acf8yemZ-345" value="" style="edgeLabel;html=1;align=center;verticalAlign=middle;resizable=0;points=[];strokeColor=default;fontFamily=Helvetica;fontSize=12;fontColor=default;fontStyle=1;fillColor=default;" parent="BzNI8jAwV_w6Acf8yemZ-344" vertex="1" connectable="0">
          <mxGeometry x="1" y="-394" relative="1" as="geometry">
            <mxPoint x="280" y="378" as="offset" />
          </mxGeometry>
        </mxCell>
        <mxCell id="BzNI8jAwV_w6Acf8yemZ-350" value="" style="edgeStyle=orthogonalEdgeStyle;html=1;align=left;verticalAlign=bottom;endArrow=open;endSize=8;strokeColor=#ff0000;rounded=0;fontFamily=Helvetica;fontSize=12;fontColor=default;fontStyle=1;exitX=0;exitY=0.5;exitDx=0;exitDy=0;entryX=0.888;entryY=0.259;entryDx=0;entryDy=0;entryPerimeter=0;" parent="hoAG8G_czNnAWnfQapLx-1" source="BzNI8jAwV_w6Acf8yemZ-211" target="BzNI8jAwV_w6Acf8yemZ-340" edge="1">
          <mxGeometry x="1" y="-400" relative="1" as="geometry">
            <mxPoint x="339" y="2590" as="targetPoint" />
            <mxPoint x="269" y="2699" as="sourcePoint" />
            <mxPoint x="286" y="383" as="offset" />
          </mxGeometry>
        </mxCell>
        <mxCell id="BzNI8jAwV_w6Acf8yemZ-351" value="" style="edgeLabel;html=1;align=center;verticalAlign=middle;resizable=0;points=[];strokeColor=default;fontFamily=Helvetica;fontSize=12;fontColor=default;fontStyle=1;fillColor=default;" parent="BzNI8jAwV_w6Acf8yemZ-350" vertex="1" connectable="0">
          <mxGeometry x="1" y="-394" relative="1" as="geometry">
            <mxPoint x="280" y="378" as="offset" />
          </mxGeometry>
        </mxCell>
        <mxCell id="BzNI8jAwV_w6Acf8yemZ-352" value="" style="edgeStyle=orthogonalEdgeStyle;html=1;verticalAlign=bottom;endArrow=open;endSize=8;strokeColor=#ff0000;rounded=0;fontFamily=Helvetica;fontSize=12;fontColor=default;fontStyle=1;exitX=0;exitY=0.5;exitDx=0;exitDy=0;entryX=0.102;entryY=0.276;entryDx=0;entryDy=0;entryPerimeter=0;" parent="hoAG8G_czNnAWnfQapLx-1" source="hoAG8G_czNnAWnfQapLx-11" target="BzNI8jAwV_w6Acf8yemZ-340" edge="1">
          <mxGeometry relative="1" as="geometry">
            <mxPoint x="-201" y="1821.2308443509614" as="targetPoint" />
            <mxPoint x="-139" y="1291" as="sourcePoint" />
            <Array as="points">
              <mxPoint x="-421" y="1405" />
              <mxPoint x="-421" y="2401" />
              <mxPoint x="166" y="2401" />
            </Array>
          </mxGeometry>
        </mxCell>
        <mxCell id="BzNI8jAwV_w6Acf8yemZ-357" value="" style="shape=line;html=1;strokeWidth=6;strokeColor=#ff0000;align=center;verticalAlign=middle;fontFamily=Helvetica;fontSize=12;fontColor=default;fontStyle=1;fillColor=default;rotation=-90;" parent="hoAG8G_czNnAWnfQapLx-1" vertex="1">
          <mxGeometry x="268" y="1322" width="60" height="10" as="geometry" />
        </mxCell>
        <mxCell id="BzNI8jAwV_w6Acf8yemZ-358" value="" style="edgeStyle=orthogonalEdgeStyle;html=1;verticalAlign=bottom;endArrow=open;endSize=8;strokeColor=#ff0000;rounded=0;fontFamily=Helvetica;fontSize=12;fontColor=default;fontStyle=1;exitX=0.497;exitY=0.672;exitDx=0;exitDy=0;entryX=0;entryY=0.5;entryDx=0;entryDy=0;exitPerimeter=0;" parent="hoAG8G_czNnAWnfQapLx-1" source="BzNI8jAwV_w6Acf8yemZ-357" target="BzNI8jAwV_w6Acf8yemZ-149" edge="1">
          <mxGeometry relative="1" as="geometry">
            <mxPoint x="308" y="1352" as="targetPoint" />
            <mxPoint x="-349" y="1351" as="sourcePoint" />
          </mxGeometry>
        </mxCell>
        <mxCell id="BzNI8jAwV_w6Acf8yemZ-47" value="yes" style="edgeStyle=orthogonalEdgeStyle;html=1;align=left;verticalAlign=top;endArrow=open;endSize=8;strokeColor=#ff0000;rounded=0;fontFamily=Helvetica;fontSize=12;fontColor=default;fontStyle=1;exitX=0.5;exitY=1;exitDx=0;exitDy=0;movable=1;resizable=1;rotatable=1;deletable=1;editable=1;locked=0;connectable=1;entryX=0.5;entryY=0;entryDx=0;entryDy=0;" parent="hoAG8G_czNnAWnfQapLx-1" source="BzNI8jAwV_w6Acf8yemZ-45" target="BzNI8jAwV_w6Acf8yemZ-50" edge="1">
          <mxGeometry x="-1" relative="1" as="geometry">
            <mxPoint x="205" y="412" as="targetPoint" />
            <mxPoint x="204" y="431" as="sourcePoint" />
          </mxGeometry>
        </mxCell>
        <mxCell id="eb62E3FtDdTzRUoGH38d-15" value="" style="rhombus;whiteSpace=wrap;html=1;fontColor=#000000;fillColor=#ffffc0;strokeColor=#ff0000;align=center;verticalAlign=middle;fontFamily=Helvetica;fontSize=12;fontStyle=1;" parent="hoAG8G_czNnAWnfQapLx-1" vertex="1">
          <mxGeometry x="178.81" y="1991" width="44.37" height="40" as="geometry" />
        </mxCell>
        <mxCell id="eb62E3FtDdTzRUoGH38d-16" value="[ if succeeded&lt;span style=&quot;background-color: initial;&quot;&gt;&amp;nbsp;&lt;/span&gt;&lt;span style=&quot;background-color: initial;&quot;&gt;]&lt;/span&gt;" style="text;html=1;align=center;verticalAlign=middle;resizable=0;points=[];autosize=1;strokeColor=none;fillColor=none;fontFamily=Helvetica;fontSize=12;fontColor=default;fontStyle=1;" parent="hoAG8G_czNnAWnfQapLx-1" vertex="1">
          <mxGeometry x="201.5" y="1977" width="100" height="30" as="geometry" />
        </mxCell>
        <mxCell id="Tc9TYvNH5LjF7Kcl3xUn-4" value="&lt;h3&gt;Notify Seeker&#39;s Guardian&lt;/h3&gt;" style="rounded=1;whiteSpace=wrap;html=1;" vertex="1" parent="hoAG8G_czNnAWnfQapLx-1">
          <mxGeometry x="320.25" y="2190" width="127.5" height="40" as="geometry" />
        </mxCell>
        <mxCell id="Tc9TYvNH5LjF7Kcl3xUn-7" value="" style="edgeStyle=orthogonalEdgeStyle;html=1;align=left;verticalAlign=bottom;endArrow=open;endSize=8;strokeColor=#ff0000;rounded=0;fontFamily=Helvetica;fontSize=12;fontColor=default;fontStyle=1;exitX=0;exitY=0.5;exitDx=0;exitDy=0;entryX=0.75;entryY=0.5;entryDx=0;entryDy=0;entryPerimeter=0;" edge="1" parent="hoAG8G_czNnAWnfQapLx-1" source="Tc9TYvNH5LjF7Kcl3xUn-18" target="BzNI8jAwV_w6Acf8yemZ-340">
          <mxGeometry x="1" y="-400" relative="1" as="geometry">
            <mxPoint x="318" y="2340" as="targetPoint" />
            <mxPoint x="330" y="2296" as="sourcePoint" />
            <mxPoint x="286" y="383" as="offset" />
            <Array as="points">
              <mxPoint x="283" y="2291" />
            </Array>
          </mxGeometry>
        </mxCell>
        <mxCell id="Tc9TYvNH5LjF7Kcl3xUn-8" value="" style="edgeLabel;html=1;align=center;verticalAlign=middle;resizable=0;points=[];strokeColor=default;fontFamily=Helvetica;fontSize=12;fontColor=default;fontStyle=1;fillColor=default;" vertex="1" connectable="0" parent="Tc9TYvNH5LjF7Kcl3xUn-7">
          <mxGeometry x="1" y="-394" relative="1" as="geometry">
            <mxPoint x="280" y="378" as="offset" />
          </mxGeometry>
        </mxCell>
        <mxCell id="Tc9TYvNH5LjF7Kcl3xUn-18" value="&lt;h3&gt;Initiates the emergency call&lt;/h3&gt;" style="rounded=1;whiteSpace=wrap;html=1;" vertex="1" parent="hoAG8G_czNnAWnfQapLx-1">
          <mxGeometry x="320.5" y="2271" width="127.5" height="40" as="geometry" />
        </mxCell>
        <mxCell id="Tc9TYvNH5LjF7Kcl3xUn-19" value="" style="edgeStyle=orthogonalEdgeStyle;html=1;align=left;verticalAlign=bottom;endArrow=open;endSize=8;strokeColor=#ff0000;rounded=0;fontFamily=Helvetica;fontSize=12;fontColor=default;fontStyle=1;entryX=0.5;entryY=0;entryDx=0;entryDy=0;" edge="1" parent="hoAG8G_czNnAWnfQapLx-1" source="Tc9TYvNH5LjF7Kcl3xUn-4" target="Tc9TYvNH5LjF7Kcl3xUn-18">
          <mxGeometry x="1" y="-400" relative="1" as="geometry">
            <mxPoint x="318" y="2427" as="targetPoint" />
            <mxPoint x="335" y="2350" as="sourcePoint" />
            <mxPoint x="286" y="383" as="offset" />
          </mxGeometry>
        </mxCell>
        <mxCell id="Tc9TYvNH5LjF7Kcl3xUn-20" value="" style="edgeLabel;html=1;align=center;verticalAlign=middle;resizable=0;points=[];strokeColor=default;fontFamily=Helvetica;fontSize=12;fontColor=default;fontStyle=1;fillColor=default;" vertex="1" connectable="0" parent="Tc9TYvNH5LjF7Kcl3xUn-19">
          <mxGeometry x="1" y="-394" relative="1" as="geometry">
            <mxPoint x="280" y="378" as="offset" />
          </mxGeometry>
        </mxCell>
        <mxCell id="Tc9TYvNH5LjF7Kcl3xUn-21" value="&lt;h3&gt;Initiates the emergency call&lt;/h3&gt;" style="rounded=1;whiteSpace=wrap;html=1;" vertex="1" parent="hoAG8G_czNnAWnfQapLx-1">
          <mxGeometry x="38.5" y="2351" width="127.5" height="40" as="geometry" />
        </mxCell>
        <mxCell id="Tc9TYvNH5LjF7Kcl3xUn-10" value="" style="edgeStyle=orthogonalEdgeStyle;html=1;align=left;verticalAlign=bottom;endArrow=open;endSize=8;strokeColor=#ff0000;rounded=0;fontFamily=Helvetica;fontSize=12;fontColor=default;fontStyle=1;exitX=1;exitY=0.5;exitDx=0;exitDy=0;entryX=0.25;entryY=0.5;entryDx=0;entryDy=0;entryPerimeter=0;" edge="1" parent="hoAG8G_czNnAWnfQapLx-1" source="Tc9TYvNH5LjF7Kcl3xUn-21" target="BzNI8jAwV_w6Acf8yemZ-340">
          <mxGeometry x="1" y="-400" relative="1" as="geometry">
            <mxPoint x="-791" y="2372" as="targetPoint" />
            <mxPoint x="-744" y="2336" as="sourcePoint" />
            <mxPoint x="286" y="383" as="offset" />
            <Array as="points">
              <mxPoint x="193" y="2371" />
            </Array>
          </mxGeometry>
        </mxCell>
        <mxCell id="Tc9TYvNH5LjF7Kcl3xUn-11" value="" style="edgeLabel;html=1;align=center;verticalAlign=middle;resizable=0;points=[];strokeColor=default;fontFamily=Helvetica;fontSize=12;fontColor=default;fontStyle=1;fillColor=default;" vertex="1" connectable="0" parent="Tc9TYvNH5LjF7Kcl3xUn-10">
          <mxGeometry x="1" y="-394" relative="1" as="geometry">
            <mxPoint x="280" y="378" as="offset" />
          </mxGeometry>
        </mxCell>
        <mxCell id="hoAG8G_czNnAWnfQapLx-2" value="&lt;font style=&quot;font-size: 17px;&quot;&gt;Service_Seeker&lt;/font&gt;" style="swimlane;whiteSpace=wrap;html=1;startSize=30;" parent="1" vertex="1">
          <mxGeometry x="-657" y="129" width="457" height="2601" as="geometry">
            <mxRectangle x="40" y="60" width="140" height="30" as="alternateBounds" />
          </mxGeometry>
        </mxCell>
        <mxCell id="hoAG8G_czNnAWnfQapLx-7" value="" style="ellipse;html=1;shape=startState;fillColor=#000000;strokeColor=#ff0000;movable=0;resizable=0;rotatable=0;deletable=0;editable=0;locked=1;connectable=0;" parent="hoAG8G_czNnAWnfQapLx-2" vertex="1">
          <mxGeometry x="156" y="61" width="30" height="30" as="geometry" />
        </mxCell>
        <mxCell id="hoAG8G_czNnAWnfQapLx-8" value="" style="edgeStyle=orthogonalEdgeStyle;html=1;verticalAlign=bottom;endArrow=open;endSize=8;strokeColor=#ff0000;rounded=0;entryX=0.505;entryY=0.308;entryDx=0;entryDy=0;entryPerimeter=0;" parent="hoAG8G_czNnAWnfQapLx-2" source="hoAG8G_czNnAWnfQapLx-7" target="BzNI8jAwV_w6Acf8yemZ-20" edge="1">
          <mxGeometry relative="1" as="geometry">
            <mxPoint x="168" y="91" as="targetPoint" />
          </mxGeometry>
        </mxCell>
        <mxCell id="hoAG8G_czNnAWnfQapLx-9" value="&lt;h3&gt;Select &quot;SignUp&quot; option&lt;/h3&gt;" style="rounded=1;whiteSpace=wrap;html=1;movable=0;resizable=0;rotatable=0;deletable=0;editable=0;locked=1;connectable=0;" parent="hoAG8G_czNnAWnfQapLx-2" vertex="1">
          <mxGeometry x="283" y="70" width="141.12" height="43" as="geometry" />
        </mxCell>
        <mxCell id="hoAG8G_czNnAWnfQapLx-20" value="&lt;h3&gt;Browse service categories&lt;/h3&gt;" style="rounded=1;whiteSpace=wrap;html=1;" parent="hoAG8G_czNnAWnfQapLx-2" vertex="1">
          <mxGeometry x="59.739999999999995" y="837" width="135" height="50" as="geometry" />
        </mxCell>
        <mxCell id="hoAG8G_czNnAWnfQapLx-41" value="" style="edgeStyle=orthogonalEdgeStyle;rounded=0;orthogonalLoop=1;jettySize=auto;html=1;fontFamily=Helvetica;fontSize=12;fontColor=default;fontStyle=1;resizable=1;" parent="hoAG8G_czNnAWnfQapLx-2" source="hoAG8G_czNnAWnfQapLx-16" target="hoAG8G_czNnAWnfQapLx-13" edge="1">
          <mxGeometry relative="1" as="geometry" />
        </mxCell>
        <mxCell id="hoAG8G_czNnAWnfQapLx-16" value="&lt;h3&gt;Provide service details&lt;/h3&gt;" style="rounded=1;whiteSpace=wrap;html=1;" parent="hoAG8G_czNnAWnfQapLx-2" vertex="1">
          <mxGeometry x="295.24" y="1041" width="123.75" height="40" as="geometry" />
        </mxCell>
        <mxCell id="hoAG8G_czNnAWnfQapLx-13" value="&lt;h3&gt;Submit Completed Service Request Form&lt;/h3&gt;" style="rounded=1;whiteSpace=wrap;html=1;" parent="hoAG8G_czNnAWnfQapLx-2" vertex="1">
          <mxGeometry x="284" y="1116" width="146.12" height="60" as="geometry" />
        </mxCell>
        <mxCell id="BzNI8jAwV_w6Acf8yemZ-20" value="" style="shape=line;html=1;strokeWidth=6;strokeColor=#ff0000;align=center;verticalAlign=middle;fontFamily=Helvetica;fontSize=12;fontColor=default;fontStyle=1;fillColor=default;rotation=-90;movable=0;resizable=0;rotatable=0;deletable=0;editable=0;locked=1;connectable=0;" parent="hoAG8G_czNnAWnfQapLx-2" vertex="1">
          <mxGeometry x="227.56" y="70.94" width="65.38" height="10" as="geometry" />
        </mxCell>
        <mxCell id="BzNI8jAwV_w6Acf8yemZ-24" value="" style="edgeStyle=orthogonalEdgeStyle;html=1;verticalAlign=bottom;endArrow=open;endSize=8;strokeColor=#ff0000;rounded=0;entryX=0;entryY=0.5;entryDx=0;entryDy=0;exitX=0.25;exitY=0.5;exitDx=0;exitDy=0;exitPerimeter=0;movable=0;resizable=0;rotatable=0;deletable=0;editable=0;locked=1;connectable=0;" parent="hoAG8G_czNnAWnfQapLx-2" source="BzNI8jAwV_w6Acf8yemZ-20" target="hoAG8G_czNnAWnfQapLx-9" edge="1">
          <mxGeometry relative="1" as="geometry">
            <mxPoint x="149" y="86" as="targetPoint" />
            <mxPoint x="78" y="141" as="sourcePoint" />
          </mxGeometry>
        </mxCell>
        <mxCell id="BzNI8jAwV_w6Acf8yemZ-36" value="&lt;h3&gt;Enter required information&lt;/h3&gt;" style="rounded=1;whiteSpace=wrap;html=1;movable=1;resizable=1;rotatable=1;deletable=1;editable=1;locked=0;connectable=1;" parent="hoAG8G_czNnAWnfQapLx-2" vertex="1">
          <mxGeometry x="242" y="253" width="135" height="50" as="geometry" />
        </mxCell>
        <mxCell id="BzNI8jAwV_w6Acf8yemZ-74" value="" style="edgeStyle=orthogonalEdgeStyle;rounded=0;orthogonalLoop=1;jettySize=auto;html=1;fontFamily=Helvetica;fontSize=12;fontColor=default;fontStyle=1;" parent="hoAG8G_czNnAWnfQapLx-2" source="BzNI8jAwV_w6Acf8yemZ-61" target="BzNI8jAwV_w6Acf8yemZ-73" edge="1">
          <mxGeometry relative="1" as="geometry" />
        </mxCell>
        <mxCell id="BzNI8jAwV_w6Acf8yemZ-61" value="&lt;h3&gt;Receive verification email&lt;/h3&gt;" style="rounded=1;whiteSpace=wrap;html=1;" parent="hoAG8G_czNnAWnfQapLx-2" vertex="1">
          <mxGeometry x="311.25" y="571" width="120" height="40" as="geometry" />
        </mxCell>
        <mxCell id="BzNI8jAwV_w6Acf8yemZ-73" value="&lt;h3&gt;Click verification link&lt;/h3&gt;" style="rounded=1;whiteSpace=wrap;html=1;" parent="hoAG8G_czNnAWnfQapLx-2" vertex="1">
          <mxGeometry x="106" y="571" width="120" height="40" as="geometry" />
        </mxCell>
        <mxCell id="BzNI8jAwV_w6Acf8yemZ-98" value="&lt;h3&gt;Receive confirmation message of successful registration&lt;/h3&gt;" style="rounded=1;whiteSpace=wrap;html=1;" parent="hoAG8G_czNnAWnfQapLx-2" vertex="1">
          <mxGeometry x="156" y="740.75" width="180.5" height="55.5" as="geometry" />
        </mxCell>
        <mxCell id="BzNI8jAwV_w6Acf8yemZ-106" value="" style="edgeStyle=orthogonalEdgeStyle;rounded=0;orthogonalLoop=1;jettySize=auto;html=1;fontFamily=Helvetica;fontSize=12;fontColor=default;fontStyle=1;" parent="hoAG8G_czNnAWnfQapLx-2" source="BzNI8jAwV_w6Acf8yemZ-104" target="hoAG8G_czNnAWnfQapLx-20" edge="1">
          <mxGeometry relative="1" as="geometry" />
        </mxCell>
        <mxCell id="BzNI8jAwV_w6Acf8yemZ-104" value="&lt;h3&gt;Navigate to Service Category section&lt;/h3&gt;" style="rounded=1;whiteSpace=wrap;html=1;" parent="hoAG8G_czNnAWnfQapLx-2" vertex="1">
          <mxGeometry x="252.75" y="837" width="135" height="50" as="geometry" />
        </mxCell>
        <mxCell id="hoAG8G_czNnAWnfQapLx-19" value="&lt;h3&gt;Select a service category&lt;/h3&gt;" style="rounded=1;whiteSpace=wrap;html=1;" parent="hoAG8G_czNnAWnfQapLx-2" vertex="1">
          <mxGeometry x="194.74" y="967" width="132.5" height="50" as="geometry" />
        </mxCell>
        <mxCell id="BzNI8jAwV_w6Acf8yemZ-110" value="" style="rhombus;whiteSpace=wrap;html=1;fontColor=#000000;fillColor=#ffffc0;strokeColor=#ff0000;align=center;verticalAlign=middle;fontFamily=Helvetica;fontSize=12;fontStyle=1;" parent="hoAG8G_czNnAWnfQapLx-2" vertex="1">
          <mxGeometry x="97" y="1040" width="42" height="41" as="geometry" />
        </mxCell>
        <mxCell id="BzNI8jAwV_w6Acf8yemZ-113" value="[ if selected&lt;div&gt;to post ]&lt;/div&gt;" style="text;html=1;align=center;verticalAlign=middle;resizable=0;points=[];autosize=1;strokeColor=none;fillColor=none;fontFamily=Helvetica;fontSize=12;fontColor=default;fontStyle=1;" parent="hoAG8G_czNnAWnfQapLx-2" vertex="1">
          <mxGeometry x="33" y="1019" width="80" height="40" as="geometry" />
        </mxCell>
        <mxCell id="BzNI8jAwV_w6Acf8yemZ-116" value="" style="edgeStyle=orthogonalEdgeStyle;rounded=0;orthogonalLoop=1;jettySize=auto;html=1;fontFamily=Helvetica;fontSize=12;fontColor=default;fontStyle=1;" parent="hoAG8G_czNnAWnfQapLx-2" source="BzNI8jAwV_w6Acf8yemZ-114" target="BzNI8jAwV_w6Acf8yemZ-115" edge="1">
          <mxGeometry relative="1" as="geometry" />
        </mxCell>
        <mxCell id="BzNI8jAwV_w6Acf8yemZ-114" value="&lt;h3&gt;Select a Service Provider&#39;s profile&lt;/h3&gt;" style="rounded=1;whiteSpace=wrap;html=1;" parent="hoAG8G_czNnAWnfQapLx-2" vertex="1">
          <mxGeometry x="58.000000000000014" y="1114" width="120" height="40" as="geometry" />
        </mxCell>
        <mxCell id="BzNI8jAwV_w6Acf8yemZ-356" value="" style="edgeStyle=orthogonalEdgeStyle;rounded=0;orthogonalLoop=1;jettySize=auto;html=1;fontFamily=Helvetica;fontSize=12;fontColor=default;fontStyle=1;entryX=0.5;entryY=0;entryDx=0;entryDy=0;" parent="hoAG8G_czNnAWnfQapLx-2" source="BzNI8jAwV_w6Acf8yemZ-115" target="BzNI8jAwV_w6Acf8yemZ-353" edge="1">
          <mxGeometry relative="1" as="geometry">
            <mxPoint x="89.37000000000012" y="1309" as="targetPoint" />
          </mxGeometry>
        </mxCell>
        <mxCell id="BzNI8jAwV_w6Acf8yemZ-115" value="&lt;h3&gt;Select &quot;Request Service&quot; option&lt;/h3&gt;" style="rounded=1;whiteSpace=wrap;html=1;" parent="hoAG8G_czNnAWnfQapLx-2" vertex="1">
          <mxGeometry x="58.370000000000005" y="1189" width="120" height="40" as="geometry" />
        </mxCell>
        <mxCell id="BzNI8jAwV_w6Acf8yemZ-118" value="" style="edgeStyle=orthogonalEdgeStyle;html=1;verticalAlign=bottom;endArrow=open;endSize=8;strokeColor=#ff0000;rounded=0;fontFamily=Helvetica;fontSize=12;fontColor=default;fontStyle=1;exitX=0.5;exitY=1;exitDx=0;exitDy=0;entryX=0.5;entryY=0;entryDx=0;entryDy=0;" parent="hoAG8G_czNnAWnfQapLx-2" source="BzNI8jAwV_w6Acf8yemZ-110" target="BzNI8jAwV_w6Acf8yemZ-114" edge="1">
          <mxGeometry relative="1" as="geometry">
            <mxPoint x="84" y="1161" as="targetPoint" />
            <mxPoint x="84" y="1101" as="sourcePoint" />
          </mxGeometry>
        </mxCell>
        <mxCell id="BzNI8jAwV_w6Acf8yemZ-120" value="yes" style="edgeLabel;html=1;align=center;verticalAlign=middle;resizable=0;points=[];strokeColor=default;fontFamily=Helvetica;fontSize=12;fontColor=default;fontStyle=1;fillColor=default;" parent="BzNI8jAwV_w6Acf8yemZ-118" vertex="1" connectable="0">
          <mxGeometry x="-0.2313" y="-2" relative="1" as="geometry">
            <mxPoint x="47" y="-42" as="offset" />
          </mxGeometry>
        </mxCell>
        <mxCell id="BzNI8jAwV_w6Acf8yemZ-121" value="no" style="edgeLabel;html=1;align=center;verticalAlign=middle;resizable=0;points=[];strokeColor=default;fontFamily=Helvetica;fontSize=12;fontColor=default;fontStyle=1;fillColor=default;" parent="BzNI8jAwV_w6Acf8yemZ-118" vertex="1" connectable="0">
          <mxGeometry x="-0.1675" y="-4" relative="1" as="geometry">
            <mxPoint x="-10" y="-4" as="offset" />
          </mxGeometry>
        </mxCell>
        <mxCell id="BzNI8jAwV_w6Acf8yemZ-119" value="" style="edgeStyle=orthogonalEdgeStyle;html=1;verticalAlign=bottom;endArrow=open;endSize=8;strokeColor=#ff0000;rounded=0;fontFamily=Helvetica;fontSize=12;fontColor=default;fontStyle=1;exitX=1;exitY=0.5;exitDx=0;exitDy=0;entryX=0;entryY=0.5;entryDx=0;entryDy=0;" parent="hoAG8G_czNnAWnfQapLx-2" source="BzNI8jAwV_w6Acf8yemZ-110" target="hoAG8G_czNnAWnfQapLx-16" edge="1">
          <mxGeometry relative="1" as="geometry">
            <mxPoint x="99" y="1124" as="targetPoint" />
            <mxPoint x="99" y="1091" as="sourcePoint" />
          </mxGeometry>
        </mxCell>
        <mxCell id="BzNI8jAwV_w6Acf8yemZ-184" value="" style="edgeStyle=orthogonalEdgeStyle;html=1;verticalAlign=bottom;endArrow=open;endSize=8;strokeColor=#ff0000;rounded=0;fontFamily=Helvetica;fontSize=12;fontColor=default;fontStyle=1;exitX=0;exitY=0.5;exitDx=0;exitDy=0;entryX=0.5;entryY=0;entryDx=0;entryDy=0;" parent="hoAG8G_czNnAWnfQapLx-2" source="hoAG8G_czNnAWnfQapLx-19" target="BzNI8jAwV_w6Acf8yemZ-110" edge="1">
          <mxGeometry relative="1" as="geometry">
            <mxPoint x="97.87" y="1040" as="targetPoint" />
            <mxPoint x="97.87" y="954" as="sourcePoint" />
          </mxGeometry>
        </mxCell>
        <mxCell id="BzNI8jAwV_w6Acf8yemZ-220" value="&lt;h3&gt;Use in-app call / message&lt;/h3&gt;" style="rounded=1;whiteSpace=wrap;html=1;" parent="hoAG8G_czNnAWnfQapLx-2" vertex="1">
          <mxGeometry x="161.75" y="1572.5" width="117" height="49" as="geometry" />
        </mxCell>
        <mxCell id="BzNI8jAwV_w6Acf8yemZ-233" value="&lt;h3&gt;View Service Provider&#39;s location&lt;/h3&gt;" style="rounded=1;whiteSpace=wrap;html=1;" parent="hoAG8G_czNnAWnfQapLx-2" vertex="1">
          <mxGeometry x="186" y="1698" width="147" height="40" as="geometry" />
        </mxCell>
        <mxCell id="BzNI8jAwV_w6Acf8yemZ-244" value="" style="shape=line;html=1;strokeWidth=6;strokeColor=#ff0000;align=center;verticalAlign=middle;fontFamily=Helvetica;fontSize=12;fontColor=default;fontStyle=1;fillColor=default;" parent="hoAG8G_czNnAWnfQapLx-2" vertex="1">
          <mxGeometry x="637.25" y="1859" width="60" height="10" as="geometry" />
        </mxCell>
        <mxCell id="BzNI8jAwV_w6Acf8yemZ-239" value="" style="rhombus;whiteSpace=wrap;html=1;fontColor=#000000;fillColor=#ffffc0;strokeColor=#ff0000;align=center;verticalAlign=middle;fontFamily=Helvetica;fontSize=12;fontStyle=1;" parent="hoAG8G_czNnAWnfQapLx-2" vertex="1">
          <mxGeometry x="384" y="1866" width="41" height="40" as="geometry" />
        </mxCell>
        <mxCell id="BzNI8jAwV_w6Acf8yemZ-243" value="[ if emergency&lt;div&gt;occurred&amp;nbsp;&lt;span style=&quot;background-color: initial;&quot;&gt;]&lt;/span&gt;&lt;/div&gt;" style="text;html=1;align=center;verticalAlign=middle;resizable=0;points=[];autosize=1;strokeColor=none;fillColor=none;fontFamily=Helvetica;fontSize=12;fontColor=default;fontStyle=1;" parent="hoAG8G_czNnAWnfQapLx-2" vertex="1">
          <mxGeometry x="354.5" y="1831" width="100" height="40" as="geometry" />
        </mxCell>
        <mxCell id="BzNI8jAwV_w6Acf8yemZ-241" value="yes" style="edgeStyle=orthogonalEdgeStyle;html=1;align=left;verticalAlign=top;endArrow=open;endSize=8;strokeColor=#ff0000;rounded=0;fontFamily=Helvetica;fontSize=12;fontColor=default;fontStyle=1;exitX=0;exitY=0.5;exitDx=0;exitDy=0;entryX=1;entryY=0.5;entryDx=0;entryDy=0;" parent="hoAG8G_czNnAWnfQapLx-2" source="BzNI8jAwV_w6Acf8yemZ-239" target="BzNI8jAwV_w6Acf8yemZ-252" edge="1">
          <mxGeometry x="0.138" y="-30" relative="1" as="geometry">
            <mxPoint x="373" y="1961" as="targetPoint" />
            <mxPoint as="offset" />
          </mxGeometry>
        </mxCell>
        <mxCell id="BzNI8jAwV_w6Acf8yemZ-250" value="" style="edgeStyle=orthogonalEdgeStyle;html=1;align=left;verticalAlign=bottom;endArrow=open;endSize=8;strokeColor=#ff0000;rounded=0;fontFamily=Helvetica;fontSize=12;fontColor=default;fontStyle=1;entryX=1;entryY=0.5;entryDx=0;entryDy=0;exitX=0.25;exitY=0.5;exitDx=0;exitDy=0;exitPerimeter=0;" parent="hoAG8G_czNnAWnfQapLx-2" source="BzNI8jAwV_w6Acf8yemZ-244" target="BzNI8jAwV_w6Acf8yemZ-239" edge="1">
          <mxGeometry x="-0.1538" y="93" relative="1" as="geometry">
            <mxPoint x="300" y="1918" as="targetPoint" />
            <mxPoint x="582.25" y="1885" as="sourcePoint" />
            <mxPoint as="offset" />
            <Array as="points">
              <mxPoint x="652" y="1872" />
              <mxPoint x="652" y="1872" />
              <mxPoint x="652" y="1886" />
            </Array>
          </mxGeometry>
        </mxCell>
        <mxCell id="BzNI8jAwV_w6Acf8yemZ-253" value="" style="edgeStyle=orthogonalEdgeStyle;html=1;align=left;verticalAlign=bottom;endArrow=open;endSize=8;strokeColor=#ff0000;rounded=0;fontFamily=Helvetica;fontSize=12;fontColor=default;fontStyle=1;exitX=0.5;exitY=1;exitDx=0;exitDy=0;entryX=0.75;entryY=0.5;entryDx=0;entryDy=0;entryPerimeter=0;" parent="hoAG8G_czNnAWnfQapLx-2" source="BzNI8jAwV_w6Acf8yemZ-239" target="BzNI8jAwV_w6Acf8yemZ-263" edge="1">
          <mxGeometry x="-0.5187" y="-10" relative="1" as="geometry">
            <mxPoint x="370" y="2048" as="targetPoint" />
            <mxPoint x="403.5000000000002" y="1954" as="sourcePoint" />
            <Array as="points">
              <mxPoint x="404" y="1941" />
            </Array>
            <mxPoint as="offset" />
          </mxGeometry>
        </mxCell>
        <mxCell id="BzNI8jAwV_w6Acf8yemZ-254" value="no" style="edgeLabel;html=1;align=center;verticalAlign=middle;resizable=0;points=[];strokeColor=default;fontFamily=Helvetica;fontSize=12;fontColor=default;fontStyle=1;fillColor=default;" parent="BzNI8jAwV_w6Acf8yemZ-253" vertex="1" connectable="0">
          <mxGeometry x="-0.5191" y="-3" relative="1" as="geometry">
            <mxPoint x="20" y="-21" as="offset" />
          </mxGeometry>
        </mxCell>
        <mxCell id="BzNI8jAwV_w6Acf8yemZ-252" value="&lt;h3&gt;Click on emergency button&lt;/h3&gt;" style="rounded=1;whiteSpace=wrap;html=1;" parent="hoAG8G_czNnAWnfQapLx-2" vertex="1">
          <mxGeometry x="55.94" y="1861" width="127.5" height="51" as="geometry" />
        </mxCell>
        <mxCell id="BzNI8jAwV_w6Acf8yemZ-259" value="&lt;h3&gt;View and choose a payment method&lt;/h3&gt;" style="rounded=1;whiteSpace=wrap;html=1;" parent="hoAG8G_czNnAWnfQapLx-2" vertex="1">
          <mxGeometry x="187.74" y="1927" width="136.5" height="56" as="geometry" />
        </mxCell>
        <mxCell id="BzNI8jAwV_w6Acf8yemZ-263" value="" style="shape=line;html=1;strokeWidth=6;strokeColor=#ff0000;align=center;verticalAlign=middle;fontFamily=Helvetica;fontSize=12;fontColor=default;fontStyle=1;fillColor=default;rotation=-90;" parent="hoAG8G_czNnAWnfQapLx-2" vertex="1">
          <mxGeometry x="323" y="1951" width="60" height="10" as="geometry" />
        </mxCell>
        <mxCell id="BzNI8jAwV_w6Acf8yemZ-309" value="" style="edgeStyle=orthogonalEdgeStyle;html=1;align=left;verticalAlign=top;endArrow=open;endSize=8;strokeColor=#ff0000;rounded=0;fontFamily=Helvetica;fontSize=12;fontColor=default;fontStyle=1;entryX=1;entryY=0.5;entryDx=0;entryDy=0;exitX=0.501;exitY=0.476;exitDx=0;exitDy=0;exitPerimeter=0;" parent="hoAG8G_czNnAWnfQapLx-2" source="BzNI8jAwV_w6Acf8yemZ-263" target="BzNI8jAwV_w6Acf8yemZ-259" edge="1">
          <mxGeometry x="0.138" y="-30" relative="1" as="geometry">
            <mxPoint x="177" y="1958" as="targetPoint" />
            <mxPoint x="271" y="1957" as="sourcePoint" />
            <mxPoint as="offset" />
          </mxGeometry>
        </mxCell>
        <mxCell id="BzNI8jAwV_w6Acf8yemZ-342" value="" style="edgeStyle=orthogonalEdgeStyle;rounded=0;orthogonalLoop=1;jettySize=auto;html=1;fontFamily=Helvetica;fontSize=12;fontColor=default;fontStyle=1;exitX=0.5;exitY=1;exitDx=0;exitDy=0;entryX=0;entryY=0.5;entryDx=0;entryDy=0;" parent="hoAG8G_czNnAWnfQapLx-2" source="hoAG8G_czNnAWnfQapLx-55" target="BzNI8jAwV_w6Acf8yemZ-341" edge="1">
          <mxGeometry relative="1" as="geometry" />
        </mxCell>
        <mxCell id="hoAG8G_czNnAWnfQapLx-55" value="&lt;h3&gt;Provide feedback&lt;/h3&gt;" style="rounded=1;whiteSpace=wrap;html=1;" parent="hoAG8G_czNnAWnfQapLx-2" vertex="1">
          <mxGeometry x="224" y="2120" width="105" height="40" as="geometry" />
        </mxCell>
        <mxCell id="BzNI8jAwV_w6Acf8yemZ-341" value="&lt;h3&gt;Update Service Provider&#39;s profile with new feedback&lt;/h3&gt;" style="rounded=1;whiteSpace=wrap;html=1;" parent="hoAG8G_czNnAWnfQapLx-2" vertex="1">
          <mxGeometry x="490" y="2208" width="192" height="46" as="geometry" />
        </mxCell>
        <mxCell id="BzNI8jAwV_w6Acf8yemZ-353" value="&lt;h3&gt;Submit Completed Service Request Form&lt;/h3&gt;" style="rounded=1;whiteSpace=wrap;html=1;" parent="hoAG8G_czNnAWnfQapLx-2" vertex="1">
          <mxGeometry x="44.879999999999995" y="1313" width="146.12" height="60" as="geometry" />
        </mxCell>
        <mxCell id="eb62E3FtDdTzRUoGH38d-13" value="" style="edgeStyle=orthogonalEdgeStyle;html=1;verticalAlign=bottom;endArrow=open;endSize=8;strokeColor=#ff0000;rounded=0;fontFamily=Helvetica;fontSize=12;fontColor=default;fontStyle=1;movable=1;resizable=1;rotatable=1;deletable=1;editable=1;locked=0;connectable=1;exitX=0.51;exitY=0.481;exitDx=0;exitDy=0;exitPerimeter=0;entryX=0;entryY=0.5;entryDx=0;entryDy=0;" parent="hoAG8G_czNnAWnfQapLx-2" source="eb62E3FtDdTzRUoGH38d-12" target="BzNI8jAwV_w6Acf8yemZ-36" edge="1">
          <mxGeometry relative="1" as="geometry">
            <mxPoint x="229" y="281" as="targetPoint" />
            <mxPoint x="147.47619047619037" y="372.5000000000002" as="sourcePoint" />
          </mxGeometry>
        </mxCell>
        <mxCell id="eb62E3FtDdTzRUoGH38d-12" value="" style="shape=line;html=1;strokeWidth=6;strokeColor=#ff0000;align=center;verticalAlign=middle;fontFamily=Helvetica;fontSize=12;fontColor=default;fontStyle=1;fillColor=default;movable=1;resizable=1;rotatable=1;deletable=1;editable=1;locked=0;connectable=1;rotation=90;" parent="hoAG8G_czNnAWnfQapLx-2" vertex="1">
          <mxGeometry x="164.5" y="273" width="53" height="10" as="geometry" />
        </mxCell>
        <mxCell id="oMoq9WBIbPPZ0b10xzmk-1" value="&lt;h3&gt;Contact Support&lt;/h3&gt;" style="rounded=1;whiteSpace=wrap;html=1;" parent="hoAG8G_czNnAWnfQapLx-2" vertex="1">
          <mxGeometry x="169" y="2044" width="85" height="40" as="geometry" />
        </mxCell>
        <mxCell id="Tc9TYvNH5LjF7Kcl3xUn-9" value="&lt;h3&gt;Notify Seeker&#39;s Guardian&lt;/h3&gt;" style="rounded=1;whiteSpace=wrap;html=1;" vertex="1" parent="hoAG8G_czNnAWnfQapLx-2">
          <mxGeometry x="496" y="2280" width="127.5" height="36" as="geometry" />
        </mxCell>
        <mxCell id="hoAG8G_czNnAWnfQapLx-3" value="&lt;font style=&quot;font-size: 17px;&quot;&gt;Service_Provider&lt;/font&gt;" style="swimlane;whiteSpace=wrap;html=1;startSize=30;movable=1;resizable=1;rotatable=1;deletable=1;editable=1;locked=0;connectable=1;" parent="1" vertex="1">
          <mxGeometry x="281" y="129" width="409" height="2601" as="geometry" />
        </mxCell>
        <mxCell id="hoAG8G_czNnAWnfQapLx-17" value="&lt;h3&gt;Upload documents&lt;/h3&gt;" style="rounded=1;whiteSpace=wrap;html=1;" parent="hoAG8G_czNnAWnfQapLx-3" vertex="1">
          <mxGeometry x="127" y="899" width="125" height="40" as="geometry" />
        </mxCell>
        <mxCell id="BzNI8jAwV_w6Acf8yemZ-14" value="&lt;h3&gt;Select &quot;SignUp&quot; option&lt;/h3&gt;" style="rounded=1;whiteSpace=wrap;html=1;movable=0;resizable=0;rotatable=0;deletable=0;editable=0;locked=1;connectable=0;" parent="hoAG8G_czNnAWnfQapLx-3" vertex="1">
          <mxGeometry x="127" y="39" width="141.12" height="43" as="geometry" />
        </mxCell>
        <mxCell id="hoAG8G_czNnAWnfQapLx-22" value="&lt;h3&gt;Receive account status&lt;/h3&gt;" style="rounded=1;whiteSpace=wrap;html=1;" parent="hoAG8G_czNnAWnfQapLx-3" vertex="1">
          <mxGeometry x="128" y="1066" width="120" height="40" as="geometry" />
        </mxCell>
        <mxCell id="BzNI8jAwV_w6Acf8yemZ-37" value="&lt;h3&gt;Enter required information&lt;/h3&gt;" style="rounded=1;whiteSpace=wrap;html=1;movable=1;resizable=1;rotatable=1;deletable=1;editable=1;locked=0;connectable=1;" parent="hoAG8G_czNnAWnfQapLx-3" vertex="1">
          <mxGeometry x="93" y="257" width="135" height="50" as="geometry" />
        </mxCell>
        <mxCell id="BzNI8jAwV_w6Acf8yemZ-78" value="" style="edgeStyle=orthogonalEdgeStyle;rounded=0;orthogonalLoop=1;jettySize=auto;html=1;fontFamily=Helvetica;fontSize=12;fontColor=default;fontStyle=1;entryX=0;entryY=0.5;entryDx=0;entryDy=0;" parent="hoAG8G_czNnAWnfQapLx-3" source="BzNI8jAwV_w6Acf8yemZ-63" target="BzNI8jAwV_w6Acf8yemZ-77" edge="1">
          <mxGeometry relative="1" as="geometry" />
        </mxCell>
        <mxCell id="BzNI8jAwV_w6Acf8yemZ-63" value="&lt;h3&gt;Receive verification email&lt;/h3&gt;" style="rounded=1;whiteSpace=wrap;html=1;" parent="hoAG8G_czNnAWnfQapLx-3" vertex="1">
          <mxGeometry x="60" y="568" width="120" height="40" as="geometry" />
        </mxCell>
        <mxCell id="BzNI8jAwV_w6Acf8yemZ-77" value="&lt;h3&gt;Click verification link&lt;/h3&gt;" style="rounded=1;whiteSpace=wrap;html=1;" parent="hoAG8G_czNnAWnfQapLx-3" vertex="1">
          <mxGeometry x="230" y="568" width="120" height="40" as="geometry" />
        </mxCell>
        <mxCell id="BzNI8jAwV_w6Acf8yemZ-97" value="&lt;h3&gt;Receive confirmation message of successful registration&lt;/h3&gt;" style="rounded=1;whiteSpace=wrap;html=1;" parent="hoAG8G_czNnAWnfQapLx-3" vertex="1">
          <mxGeometry x="136.5" y="740" width="180.5" height="55.5" as="geometry" />
        </mxCell>
        <mxCell id="BzNI8jAwV_w6Acf8yemZ-144" value="" style="shape=line;html=1;strokeWidth=6;strokeColor=#ff0000;align=center;verticalAlign=middle;fontFamily=Helvetica;fontSize=12;fontColor=default;fontStyle=1;fillColor=default;rotation=-90;" parent="hoAG8G_czNnAWnfQapLx-3" vertex="1">
          <mxGeometry x="33" y="1081" width="60" height="10" as="geometry" />
        </mxCell>
        <mxCell id="BzNI8jAwV_w6Acf8yemZ-145" value="" style="edgeStyle=orthogonalEdgeStyle;html=1;verticalAlign=bottom;endArrow=open;endSize=8;strokeColor=#ff0000;rounded=0;fontFamily=Helvetica;fontSize=12;fontColor=default;fontStyle=1;entryX=0;entryY=0.5;entryDx=0;entryDy=0;exitX=0.502;exitY=0.749;exitDx=0;exitDy=0;exitPerimeter=0;" parent="hoAG8G_czNnAWnfQapLx-3" source="BzNI8jAwV_w6Acf8yemZ-144" target="hoAG8G_czNnAWnfQapLx-22" edge="1">
          <mxGeometry relative="1" as="geometry">
            <mxPoint x="18" y="1196" as="targetPoint" />
          </mxGeometry>
        </mxCell>
        <mxCell id="BzNI8jAwV_w6Acf8yemZ-153" value="&lt;h3&gt;View dashboard&lt;/h3&gt;" style="rounded=1;whiteSpace=wrap;html=1;" parent="hoAG8G_czNnAWnfQapLx-3" vertex="1">
          <mxGeometry x="34" y="1226" width="128" height="40" as="geometry" />
        </mxCell>
        <mxCell id="BzNI8jAwV_w6Acf8yemZ-155" value="&lt;h3&gt;Receive&amp;nbsp; notifications&lt;/h3&gt;" style="rounded=1;whiteSpace=wrap;html=1;" parent="hoAG8G_czNnAWnfQapLx-3" vertex="1">
          <mxGeometry x="31" y="1385" width="119" height="40" as="geometry" />
        </mxCell>
        <mxCell id="BzNI8jAwV_w6Acf8yemZ-176" value="" style="edgeStyle=orthogonalEdgeStyle;rounded=0;orthogonalLoop=1;jettySize=auto;html=1;fontFamily=Helvetica;fontSize=12;fontColor=default;fontStyle=1;" parent="hoAG8G_czNnAWnfQapLx-3" source="BzNI8jAwV_w6Acf8yemZ-157" target="BzNI8jAwV_w6Acf8yemZ-175" edge="1">
          <mxGeometry relative="1" as="geometry" />
        </mxCell>
        <mxCell id="BzNI8jAwV_w6Acf8yemZ-157" value="&lt;h3&gt;Navigate to Notification center&lt;/h3&gt;" style="rounded=1;whiteSpace=wrap;html=1;" parent="hoAG8G_czNnAWnfQapLx-3" vertex="1">
          <mxGeometry x="251" y="1301" width="147" height="49" as="geometry" />
        </mxCell>
        <mxCell id="BzNI8jAwV_w6Acf8yemZ-175" value="&lt;h3&gt;View service request&lt;/h3&gt;" style="rounded=1;whiteSpace=wrap;html=1;" parent="hoAG8G_czNnAWnfQapLx-3" vertex="1">
          <mxGeometry x="252" y="1400" width="147" height="49" as="geometry" />
        </mxCell>
        <mxCell id="BzNI8jAwV_w6Acf8yemZ-179" value="" style="rhombus;whiteSpace=wrap;html=1;fontColor=#000000;fillColor=#ffffc0;strokeColor=#ff0000;align=center;verticalAlign=middle;fontFamily=Helvetica;fontSize=12;fontStyle=1;" parent="hoAG8G_czNnAWnfQapLx-3" vertex="1">
          <mxGeometry x="302" y="1483" width="47" height="44" as="geometry" />
        </mxCell>
        <mxCell id="BzNI8jAwV_w6Acf8yemZ-183" value="" style="edgeStyle=orthogonalEdgeStyle;html=1;verticalAlign=bottom;endArrow=open;endSize=8;strokeColor=#ff0000;rounded=0;fontFamily=Helvetica;fontSize=12;fontColor=default;fontStyle=1;exitX=0.5;exitY=1;exitDx=0;exitDy=0;entryX=0.5;entryY=0;entryDx=0;entryDy=0;" parent="hoAG8G_czNnAWnfQapLx-3" source="BzNI8jAwV_w6Acf8yemZ-175" target="BzNI8jAwV_w6Acf8yemZ-179" edge="1">
          <mxGeometry relative="1" as="geometry">
            <mxPoint x="277" y="1617" as="targetPoint" />
            <mxPoint x="277" y="1531" as="sourcePoint" />
          </mxGeometry>
        </mxCell>
        <mxCell id="BzNI8jAwV_w6Acf8yemZ-186" value="[ if accepted&amp;nbsp;&lt;span style=&quot;background-color: initial;&quot;&gt;]&lt;/span&gt;" style="text;html=1;align=center;verticalAlign=middle;resizable=0;points=[];autosize=1;strokeColor=none;fillColor=none;fontFamily=Helvetica;fontSize=12;fontColor=default;fontStyle=1;" parent="hoAG8G_czNnAWnfQapLx-3" vertex="1">
          <mxGeometry x="233" y="1468" width="90" height="30" as="geometry" />
        </mxCell>
        <mxCell id="BzNI8jAwV_w6Acf8yemZ-213" value="" style="rhombus;whiteSpace=wrap;html=1;fontColor=#000000;fillColor=#ffffc0;strokeColor=#ff0000;align=center;verticalAlign=middle;fontFamily=Helvetica;fontSize=12;fontStyle=1;" parent="hoAG8G_czNnAWnfQapLx-3" vertex="1">
          <mxGeometry x="167" y="1575" width="47" height="44" as="geometry" />
        </mxCell>
        <mxCell id="BzNI8jAwV_w6Acf8yemZ-214" value="[ if want to connect&lt;div&gt;with seeker&amp;nbsp;&lt;span style=&quot;background-color: initial;&quot;&gt;]&lt;/span&gt;&lt;/div&gt;" style="text;html=1;align=center;verticalAlign=middle;resizable=0;points=[];autosize=1;strokeColor=none;fillColor=none;fontFamily=Helvetica;fontSize=12;fontColor=default;fontStyle=1;" parent="hoAG8G_czNnAWnfQapLx-3" vertex="1">
          <mxGeometry x="195" y="1560" width="120" height="40" as="geometry" />
        </mxCell>
        <mxCell id="BzNI8jAwV_w6Acf8yemZ-217" value="&lt;h3&gt;Use in-app call / message&lt;/h3&gt;" style="rounded=1;whiteSpace=wrap;html=1;" parent="hoAG8G_czNnAWnfQapLx-3" vertex="1">
          <mxGeometry x="18" y="1572.5" width="117" height="49" as="geometry" />
        </mxCell>
        <mxCell id="BzNI8jAwV_w6Acf8yemZ-215" value="yes" style="edgeStyle=orthogonalEdgeStyle;html=1;align=left;verticalAlign=top;endArrow=open;endSize=8;strokeColor=#ff0000;rounded=0;fontFamily=Helvetica;fontSize=12;fontColor=default;fontStyle=1;exitX=0;exitY=0.5;exitDx=0;exitDy=0;entryX=1;entryY=0.5;entryDx=0;entryDy=0;" parent="hoAG8G_czNnAWnfQapLx-3" source="BzNI8jAwV_w6Acf8yemZ-213" target="BzNI8jAwV_w6Acf8yemZ-217" edge="1">
          <mxGeometry x="0.3231" y="3" relative="1" as="geometry">
            <mxPoint x="313" y="1751" as="targetPoint" />
            <mxPoint x="324" y="1605" as="sourcePoint" />
            <mxPoint as="offset" />
          </mxGeometry>
        </mxCell>
        <mxCell id="BzNI8jAwV_w6Acf8yemZ-187" value="&lt;h3&gt;Share location&lt;/h3&gt;" style="rounded=1;whiteSpace=wrap;html=1;" parent="hoAG8G_czNnAWnfQapLx-3" vertex="1">
          <mxGeometry x="132" y="1702" width="117" height="30" as="geometry" />
        </mxCell>
        <mxCell id="BzNI8jAwV_w6Acf8yemZ-227" value="" style="rhombus;whiteSpace=wrap;html=1;fontColor=#000000;fillColor=#ffffc0;strokeColor=#ff0000;align=center;verticalAlign=middle;fontFamily=Helvetica;fontSize=12;fontStyle=1;" parent="hoAG8G_czNnAWnfQapLx-3" vertex="1">
          <mxGeometry x="167" y="1635" width="47" height="44" as="geometry" />
        </mxCell>
        <mxCell id="BzNI8jAwV_w6Acf8yemZ-218" value="no" style="edgeStyle=orthogonalEdgeStyle;html=1;align=left;verticalAlign=bottom;endArrow=open;endSize=8;strokeColor=#ff0000;rounded=0;fontFamily=Helvetica;fontSize=12;fontColor=default;fontStyle=1;exitX=0.5;exitY=1;exitDx=0;exitDy=0;entryX=0.5;entryY=0;entryDx=0;entryDy=0;" parent="hoAG8G_czNnAWnfQapLx-3" source="BzNI8jAwV_w6Acf8yemZ-213" target="BzNI8jAwV_w6Acf8yemZ-227" edge="1">
          <mxGeometry x="0.0491" y="26" relative="1" as="geometry">
            <mxPoint x="229" y="1801" as="targetPoint" />
            <mxPoint x="256" y="1612.57" as="sourcePoint" />
            <mxPoint y="-1" as="offset" />
          </mxGeometry>
        </mxCell>
        <mxCell id="BzNI8jAwV_w6Acf8yemZ-230" value="" style="edgeStyle=orthogonalEdgeStyle;html=1;align=left;verticalAlign=bottom;endArrow=open;endSize=8;strokeColor=#ff0000;rounded=0;fontFamily=Helvetica;fontSize=12;fontColor=default;fontStyle=1;exitX=0.5;exitY=1;exitDx=0;exitDy=0;entryX=0.5;entryY=0;entryDx=0;entryDy=0;" parent="hoAG8G_czNnAWnfQapLx-3" source="BzNI8jAwV_w6Acf8yemZ-227" target="BzNI8jAwV_w6Acf8yemZ-187" edge="1">
          <mxGeometry x="-0.1538" y="93" relative="1" as="geometry">
            <mxPoint x="226" y="1705" as="targetPoint" />
            <mxPoint x="227" y="1560" as="sourcePoint" />
            <mxPoint as="offset" />
          </mxGeometry>
        </mxCell>
        <mxCell id="BzNI8jAwV_w6Acf8yemZ-247" value="[ if emergency&lt;div&gt;occur&amp;nbsp;&lt;span style=&quot;background-color: initial;&quot;&gt;]&lt;/span&gt;&lt;/div&gt;" style="text;html=1;align=center;verticalAlign=middle;resizable=0;points=[];autosize=1;strokeColor=none;fillColor=none;fontFamily=Helvetica;fontSize=12;fontColor=default;fontStyle=1;" parent="hoAG8G_czNnAWnfQapLx-3" vertex="1">
          <mxGeometry x="51.5" y="1826" width="100" height="40" as="geometry" />
        </mxCell>
        <mxCell id="BzNI8jAwV_w6Acf8yemZ-246" value="" style="rhombus;whiteSpace=wrap;html=1;fontColor=#000000;fillColor=#ffffc0;strokeColor=#ff0000;align=center;verticalAlign=middle;fontFamily=Helvetica;fontSize=12;fontStyle=1;" parent="hoAG8G_czNnAWnfQapLx-3" vertex="1">
          <mxGeometry x="81" y="1866" width="41" height="40" as="geometry" />
        </mxCell>
        <mxCell id="hoAG8G_czNnAWnfQapLx-12" value="&lt;h3&gt;Click on emergency button&lt;/h3&gt;" style="rounded=1;whiteSpace=wrap;html=1;" parent="hoAG8G_czNnAWnfQapLx-3" vertex="1">
          <mxGeometry x="170.5" y="1860.5" width="127.5" height="51" as="geometry" />
        </mxCell>
        <mxCell id="BzNI8jAwV_w6Acf8yemZ-249" value="yes" style="edgeStyle=orthogonalEdgeStyle;html=1;align=left;verticalAlign=top;endArrow=open;endSize=8;strokeColor=#ff0000;rounded=0;fontFamily=Helvetica;fontSize=12;fontColor=default;fontStyle=1;exitX=1;exitY=0.5;exitDx=0;exitDy=0;entryX=0;entryY=0.5;entryDx=0;entryDy=0;" parent="hoAG8G_czNnAWnfQapLx-3" source="BzNI8jAwV_w6Acf8yemZ-246" target="hoAG8G_czNnAWnfQapLx-12" edge="1">
          <mxGeometry x="-0.2032" y="33" relative="1" as="geometry">
            <mxPoint x="116" y="1971" as="targetPoint" />
            <mxPoint as="offset" />
          </mxGeometry>
        </mxCell>
        <mxCell id="hoAG8G_czNnAWnfQapLx-18" value="&lt;h3&gt;Update task status &quot;Finished&quot;&lt;/h3&gt;" style="rounded=1;whiteSpace=wrap;html=1;movable=1;resizable=1;rotatable=1;deletable=1;editable=1;locked=0;connectable=1;" parent="hoAG8G_czNnAWnfQapLx-3" vertex="1">
          <mxGeometry x="27.5" y="1925" width="148.5" height="49" as="geometry" />
        </mxCell>
        <mxCell id="BzNI8jAwV_w6Acf8yemZ-248" value="no" style="edgeStyle=orthogonalEdgeStyle;html=1;align=left;verticalAlign=bottom;endArrow=open;endSize=8;strokeColor=#ff0000;rounded=0;fontFamily=Helvetica;fontSize=12;fontColor=default;fontStyle=1;entryX=0.5;entryY=0;entryDx=0;entryDy=0;exitX=0.5;exitY=1;exitDx=0;exitDy=0;" parent="hoAG8G_czNnAWnfQapLx-3" source="BzNI8jAwV_w6Acf8yemZ-246" target="hoAG8G_czNnAWnfQapLx-18" edge="1">
          <mxGeometry x="0.1784" y="17" relative="1" as="geometry">
            <mxPoint x="266" y="1861" as="targetPoint" />
            <mxPoint x="169" y="2081" as="sourcePoint" />
            <mxPoint as="offset" />
          </mxGeometry>
        </mxCell>
        <mxCell id="BzNI8jAwV_w6Acf8yemZ-255" value="&lt;h3&gt;Enter service charge amount&lt;/h3&gt;" style="rounded=1;whiteSpace=wrap;html=1;" parent="hoAG8G_czNnAWnfQapLx-3" vertex="1">
          <mxGeometry x="29.5" y="1982" width="105" height="40" as="geometry" />
        </mxCell>
        <mxCell id="BzNI8jAwV_w6Acf8yemZ-333" value="&lt;h3&gt;Update request status &quot;Completed&quot;&lt;/h3&gt;" style="rounded=1;whiteSpace=wrap;html=1;" parent="hoAG8G_czNnAWnfQapLx-3" vertex="1">
          <mxGeometry x="42" y="2063" width="136.5" height="47" as="geometry" />
        </mxCell>
        <mxCell id="BzNI8jAwV_w6Acf8yemZ-334" value="" style="shape=line;html=1;strokeWidth=6;strokeColor=#ff0000;align=center;verticalAlign=middle;fontFamily=Helvetica;fontSize=12;fontColor=default;fontStyle=1;fillColor=default;rotation=-90;" parent="hoAG8G_czNnAWnfQapLx-3" vertex="1">
          <mxGeometry x="10.75" y="2148.25" width="58.5" height="10" as="geometry" />
        </mxCell>
        <mxCell id="BzNI8jAwV_w6Acf8yemZ-245" value="" style="edgeStyle=orthogonalEdgeStyle;html=1;verticalAlign=bottom;endArrow=open;endSize=8;strokeColor=#ff0000;rounded=0;fontFamily=Helvetica;fontSize=12;fontColor=default;fontStyle=1;exitX=0.5;exitY=1;exitDx=0;exitDy=0;entryX=0.487;entryY=0.687;entryDx=0;entryDy=0;entryPerimeter=0;" parent="hoAG8G_czNnAWnfQapLx-3" source="BzNI8jAwV_w6Acf8yemZ-333" target="BzNI8jAwV_w6Acf8yemZ-334" edge="1">
          <mxGeometry relative="1" as="geometry">
            <mxPoint x="-103.34000000000009" y="2584" as="targetPoint" />
            <mxPoint x="-171.0000000000004" y="2511" as="sourcePoint" />
            <Array as="points">
              <mxPoint x="104" y="2154" />
              <mxPoint x="99" y="2154" />
            </Array>
          </mxGeometry>
        </mxCell>
        <mxCell id="BzNI8jAwV_w6Acf8yemZ-70" value="" style="edgeStyle=orthogonalEdgeStyle;html=1;verticalAlign=bottom;endArrow=open;endSize=8;strokeColor=#ff0000;rounded=0;fontFamily=Helvetica;fontSize=12;fontColor=default;fontStyle=1;exitX=0.75;exitY=0.5;exitDx=0;exitDy=0;entryX=0;entryY=0.5;entryDx=0;entryDy=0;exitPerimeter=0;" parent="hoAG8G_czNnAWnfQapLx-3" target="BzNI8jAwV_w6Acf8yemZ-63" edge="1">
          <mxGeometry relative="1" as="geometry">
            <mxPoint x="51.5" y="588.9999999999999" as="targetPoint" />
            <mxPoint x="-75.5" y="568" as="sourcePoint" />
            <Array as="points">
              <mxPoint x="-75" y="588" />
            </Array>
          </mxGeometry>
        </mxCell>
        <mxCell id="eb62E3FtDdTzRUoGH38d-3" value="" style="shape=line;html=1;strokeWidth=6;strokeColor=#ff0000;align=center;verticalAlign=middle;fontFamily=Helvetica;fontSize=12;fontColor=default;fontStyle=1;fillColor=default;movable=1;resizable=1;rotatable=1;deletable=1;editable=1;locked=0;connectable=1;rotation=90;" parent="hoAG8G_czNnAWnfQapLx-3" vertex="1">
          <mxGeometry x="241.5" y="276.5" width="53" height="10" as="geometry" />
        </mxCell>
        <mxCell id="eb62E3FtDdTzRUoGH38d-5" value="" style="edgeStyle=orthogonalEdgeStyle;html=1;verticalAlign=bottom;endArrow=open;endSize=8;strokeColor=#ff0000;rounded=0;fontFamily=Helvetica;fontSize=12;fontColor=default;fontStyle=1;entryX=1;entryY=0.5;entryDx=0;entryDy=0;movable=1;resizable=1;rotatable=1;deletable=1;editable=1;locked=0;connectable=1;exitX=0.51;exitY=0.481;exitDx=0;exitDy=0;exitPerimeter=0;" parent="hoAG8G_czNnAWnfQapLx-3" source="eb62E3FtDdTzRUoGH38d-3" target="BzNI8jAwV_w6Acf8yemZ-37" edge="1">
          <mxGeometry relative="1" as="geometry">
            <mxPoint x="249.47619047619037" y="301.0000000000002" as="targetPoint" />
            <mxPoint x="249.47619047619037" y="368.0000000000002" as="sourcePoint" />
          </mxGeometry>
        </mxCell>
        <mxCell id="hoAG8G_czNnAWnfQapLx-37" value="" style="edgeStyle=orthogonalEdgeStyle;rounded=0;orthogonalLoop=1;jettySize=auto;html=1;fontFamily=Helvetica;fontSize=12;fontColor=default;fontStyle=1;resizable=1;entryX=0;entryY=0.5;entryDx=0;entryDy=0;exitX=0.5;exitY=1;exitDx=0;exitDy=0;" parent="1" source="hoAG8G_czNnAWnfQapLx-20" target="hoAG8G_czNnAWnfQapLx-10" edge="1">
          <mxGeometry relative="1" as="geometry" />
        </mxCell>
        <mxCell id="BzNI8jAwV_w6Acf8yemZ-21" value="" style="edgeStyle=orthogonalEdgeStyle;html=1;verticalAlign=bottom;endArrow=open;endSize=8;strokeColor=#ff0000;rounded=0;fontFamily=Helvetica;fontSize=12;fontColor=default;fontStyle=1;entryX=0;entryY=0.5;entryDx=0;entryDy=0;exitX=0.75;exitY=0.5;exitDx=0;exitDy=0;exitPerimeter=0;movable=0;resizable=0;rotatable=0;deletable=0;editable=0;locked=1;connectable=0;" parent="1" source="BzNI8jAwV_w6Acf8yemZ-20" target="BzNI8jAwV_w6Acf8yemZ-14" edge="1">
          <mxGeometry relative="1" as="geometry">
            <mxPoint x="-421.75" y="340" as="targetPoint" />
          </mxGeometry>
        </mxCell>
        <mxCell id="BzNI8jAwV_w6Acf8yemZ-29" value="" style="shape=line;html=1;strokeWidth=6;strokeColor=#ff0000;align=center;verticalAlign=middle;fontFamily=Helvetica;fontSize=12;fontColor=default;fontStyle=1;fillColor=default;movable=0;resizable=0;rotatable=0;deletable=0;editable=0;locked=1;connectable=0;" parent="1" vertex="1">
          <mxGeometry x="55" y="242" width="60" height="10" as="geometry" />
        </mxCell>
        <mxCell id="BzNI8jAwV_w6Acf8yemZ-30" value="" style="edgeStyle=orthogonalEdgeStyle;html=1;verticalAlign=bottom;endArrow=open;endSize=8;strokeColor=#ff0000;rounded=0;fontFamily=Helvetica;fontSize=12;fontColor=default;fontStyle=1;entryX=0.5;entryY=0;entryDx=0;entryDy=0;movable=0;resizable=0;rotatable=0;deletable=0;editable=0;locked=1;connectable=0;" parent="1" source="BzNI8jAwV_w6Acf8yemZ-29" target="BzNI8jAwV_w6Acf8yemZ-17" edge="1">
          <mxGeometry relative="1" as="geometry">
            <mxPoint x="-25" y="400" as="targetPoint" />
          </mxGeometry>
        </mxCell>
        <mxCell id="BzNI8jAwV_w6Acf8yemZ-31" value="" style="edgeStyle=orthogonalEdgeStyle;html=1;verticalAlign=bottom;endArrow=open;endSize=8;strokeColor=#ff0000;rounded=0;entryX=0.25;entryY=0.5;entryDx=0;entryDy=0;exitX=1;exitY=0.5;exitDx=0;exitDy=0;entryPerimeter=0;movable=0;resizable=0;rotatable=0;deletable=0;editable=0;locked=1;connectable=0;" parent="1" source="hoAG8G_czNnAWnfQapLx-9" target="BzNI8jAwV_w6Acf8yemZ-29" edge="1">
          <mxGeometry relative="1" as="geometry">
            <mxPoint x="-355" y="230" as="targetPoint" />
            <mxPoint x="-275" y="270" as="sourcePoint" />
            <Array as="points">
              <mxPoint x="-76" y="221" />
              <mxPoint x="70" y="221" />
            </Array>
          </mxGeometry>
        </mxCell>
        <mxCell id="BzNI8jAwV_w6Acf8yemZ-32" value="" style="edgeStyle=orthogonalEdgeStyle;html=1;verticalAlign=bottom;endArrow=open;endSize=8;strokeColor=#ff0000;rounded=0;entryX=0.75;entryY=0.5;entryDx=0;entryDy=0;exitX=0.5;exitY=1;exitDx=0;exitDy=0;entryPerimeter=0;movable=0;resizable=0;rotatable=0;deletable=0;editable=0;locked=1;connectable=0;" parent="1" source="BzNI8jAwV_w6Acf8yemZ-14" target="BzNI8jAwV_w6Acf8yemZ-29" edge="1">
          <mxGeometry relative="1" as="geometry">
            <mxPoint x="-345" y="240" as="targetPoint" />
            <mxPoint x="-445" y="239" as="sourcePoint" />
          </mxGeometry>
        </mxCell>
        <mxCell id="BzNI8jAwV_w6Acf8yemZ-38" value="" style="edgeStyle=orthogonalEdgeStyle;html=1;verticalAlign=bottom;endArrow=open;endSize=8;strokeColor=#ff0000;rounded=0;fontFamily=Helvetica;fontSize=12;fontColor=default;fontStyle=1;exitX=0.25;exitY=0.5;exitDx=0;exitDy=0;entryX=0.371;entryY=0.762;entryDx=0;entryDy=0;exitPerimeter=0;movable=1;resizable=1;rotatable=1;deletable=1;editable=1;locked=0;connectable=1;entryPerimeter=0;" parent="1" source="BzNI8jAwV_w6Acf8yemZ-33" target="eb62E3FtDdTzRUoGH38d-12" edge="1">
          <mxGeometry relative="1" as="geometry">
            <mxPoint x="-15" y="359" as="targetPoint" />
            <mxPoint x="-15" y="332" as="sourcePoint" />
            <Array as="points">
              <mxPoint x="66" y="360" />
              <mxPoint x="-510" y="360" />
              <mxPoint x="-510" y="400" />
            </Array>
          </mxGeometry>
        </mxCell>
        <mxCell id="BzNI8jAwV_w6Acf8yemZ-39" value="" style="edgeStyle=orthogonalEdgeStyle;html=1;verticalAlign=bottom;endArrow=open;endSize=8;strokeColor=#ff0000;rounded=0;fontFamily=Helvetica;fontSize=12;fontColor=default;fontStyle=1;exitX=0.75;exitY=0.5;exitDx=0;exitDy=0;entryX=0.374;entryY=0.38;entryDx=0;entryDy=0;exitPerimeter=0;movable=1;resizable=1;rotatable=1;deletable=1;editable=1;locked=0;connectable=1;entryPerimeter=0;" parent="1" source="BzNI8jAwV_w6Acf8yemZ-33" target="eb62E3FtDdTzRUoGH38d-3" edge="1">
          <mxGeometry relative="1" as="geometry">
            <mxPoint x="-5" y="369" as="targetPoint" />
            <mxPoint x="-5" y="342" as="sourcePoint" />
            <Array as="points">
              <mxPoint x="101" y="360" />
              <mxPoint x="600" y="360" />
              <mxPoint x="600" y="404" />
            </Array>
          </mxGeometry>
        </mxCell>
        <mxCell id="BzNI8jAwV_w6Acf8yemZ-42" value="" style="edgeStyle=orthogonalEdgeStyle;html=1;verticalAlign=bottom;endArrow=open;endSize=8;strokeColor=#ff0000;rounded=0;entryX=0.25;entryY=0.5;entryDx=0;entryDy=0;exitX=1;exitY=0.5;exitDx=0;exitDy=0;entryPerimeter=0;movable=0;resizable=0;rotatable=0;deletable=0;editable=0;locked=1;connectable=0;" parent="1" source="BzNI8jAwV_w6Acf8yemZ-36" target="BzNI8jAwV_w6Acf8yemZ-40" edge="1">
          <mxGeometry relative="1" as="geometry">
            <mxPoint x="-345" y="467" as="targetPoint" />
            <mxPoint x="-214" y="457" as="sourcePoint" />
            <Array as="points">
              <mxPoint x="-7" y="407" />
            </Array>
          </mxGeometry>
        </mxCell>
        <mxCell id="BzNI8jAwV_w6Acf8yemZ-43" value="" style="edgeStyle=orthogonalEdgeStyle;html=1;verticalAlign=bottom;endArrow=open;endSize=8;strokeColor=#ff0000;rounded=0;entryX=0.75;entryY=0.5;entryDx=0;entryDy=0;entryPerimeter=0;exitX=0;exitY=0.5;exitDx=0;exitDy=0;movable=0;resizable=0;rotatable=0;deletable=0;editable=0;locked=1;connectable=0;" parent="1" source="BzNI8jAwV_w6Acf8yemZ-37" target="BzNI8jAwV_w6Acf8yemZ-40" edge="1">
          <mxGeometry relative="1" as="geometry">
            <mxPoint x="-335" y="477" as="targetPoint" />
            <mxPoint x="365" y="400" as="sourcePoint" />
            <Array as="points">
              <mxPoint x="23" y="404" />
            </Array>
          </mxGeometry>
        </mxCell>
        <mxCell id="BzNI8jAwV_w6Acf8yemZ-69" value="" style="edgeStyle=orthogonalEdgeStyle;html=1;verticalAlign=bottom;endArrow=open;endSize=8;strokeColor=#ff0000;rounded=0;fontFamily=Helvetica;fontSize=12;fontColor=default;fontStyle=1;exitX=0.25;exitY=0.5;exitDx=0;exitDy=0;entryX=1;entryY=0.5;entryDx=0;entryDy=0;exitPerimeter=0;" parent="1" source="BzNI8jAwV_w6Acf8yemZ-67" target="BzNI8jAwV_w6Acf8yemZ-61" edge="1">
          <mxGeometry relative="1" as="geometry">
            <mxPoint x="-358" y="385" as="targetPoint" />
            <mxPoint x="-5" y="342" as="sourcePoint" />
            <Array as="points">
              <mxPoint x="179" y="720" />
            </Array>
          </mxGeometry>
        </mxCell>
        <mxCell id="BzNI8jAwV_w6Acf8yemZ-81" value="" style="shape=line;html=1;strokeWidth=6;strokeColor=#ff0000;align=center;verticalAlign=middle;fontFamily=Helvetica;fontSize=12;fontColor=default;fontStyle=1;fillColor=default;" parent="1" vertex="1">
          <mxGeometry x="-10.5" y="774" width="60" height="10" as="geometry" />
        </mxCell>
        <mxCell id="BzNI8jAwV_w6Acf8yemZ-82" value="" style="edgeStyle=orthogonalEdgeStyle;html=1;verticalAlign=bottom;endArrow=open;endSize=8;strokeColor=#ff0000;rounded=0;fontFamily=Helvetica;fontSize=12;fontColor=default;fontStyle=1;entryX=0.5;entryY=0;entryDx=0;entryDy=0;" parent="1" source="BzNI8jAwV_w6Acf8yemZ-81" target="BzNI8jAwV_w6Acf8yemZ-85" edge="1">
          <mxGeometry relative="1" as="geometry">
            <mxPoint x="-98" y="810" as="targetPoint" />
          </mxGeometry>
        </mxCell>
        <mxCell id="BzNI8jAwV_w6Acf8yemZ-83" value="" style="edgeStyle=orthogonalEdgeStyle;html=1;verticalAlign=bottom;endArrow=open;endSize=8;strokeColor=#ff0000;rounded=0;entryX=0.25;entryY=0.5;entryDx=0;entryDy=0;exitX=0.5;exitY=1;exitDx=0;exitDy=0;entryPerimeter=0;" parent="1" source="BzNI8jAwV_w6Acf8yemZ-73" target="BzNI8jAwV_w6Acf8yemZ-81" edge="1">
          <mxGeometry relative="1" as="geometry">
            <mxPoint x="-335" y="880" as="targetPoint" />
            <mxPoint x="-323" y="813" as="sourcePoint" />
          </mxGeometry>
        </mxCell>
        <mxCell id="BzNI8jAwV_w6Acf8yemZ-84" value="" style="edgeStyle=orthogonalEdgeStyle;html=1;verticalAlign=bottom;endArrow=open;endSize=8;strokeColor=#ff0000;rounded=0;entryX=0.75;entryY=0.5;entryDx=0;entryDy=0;entryPerimeter=0;exitX=0.5;exitY=1;exitDx=0;exitDy=0;" parent="1" source="BzNI8jAwV_w6Acf8yemZ-77" target="BzNI8jAwV_w6Acf8yemZ-81" edge="1">
          <mxGeometry relative="1" as="geometry">
            <mxPoint x="-325" y="890" as="targetPoint" />
            <mxPoint x="378" y="813" as="sourcePoint" />
          </mxGeometry>
        </mxCell>
        <mxCell id="BzNI8jAwV_w6Acf8yemZ-92" value="" style="shape=line;html=1;strokeWidth=6;strokeColor=#ff0000;align=center;verticalAlign=middle;fontFamily=Helvetica;fontSize=12;fontColor=default;fontStyle=1;fillColor=default;" parent="1" vertex="1">
          <mxGeometry x="168.5" y="877" width="70" height="10" as="geometry" />
        </mxCell>
        <mxCell id="BzNI8jAwV_w6Acf8yemZ-93" value="" style="edgeStyle=orthogonalEdgeStyle;html=1;verticalAlign=bottom;endArrow=open;endSize=8;strokeColor=#ff0000;rounded=0;fontFamily=Helvetica;fontSize=12;fontColor=default;fontStyle=1;exitX=0.5;exitY=1;exitDx=0;exitDy=0;entryX=0.513;entryY=0.656;entryDx=0;entryDy=0;entryPerimeter=0;" parent="1" source="BzNI8jAwV_w6Acf8yemZ-90" target="BzNI8jAwV_w6Acf8yemZ-92" edge="1">
          <mxGeometry relative="1" as="geometry">
            <mxPoint x="32" y="649" as="targetPoint" />
            <mxPoint x="92" y="859" as="sourcePoint" />
          </mxGeometry>
        </mxCell>
        <mxCell id="BzNI8jAwV_w6Acf8yemZ-94" value="" style="edgeStyle=orthogonalEdgeStyle;html=1;verticalAlign=bottom;endArrow=open;endSize=8;strokeColor=#ff0000;rounded=0;fontFamily=Helvetica;fontSize=12;fontColor=default;fontStyle=1;exitX=0.25;exitY=0.5;exitDx=0;exitDy=0;entryX=1;entryY=0.5;entryDx=0;entryDy=0;exitPerimeter=0;" parent="1" source="BzNI8jAwV_w6Acf8yemZ-92" target="BzNI8jAwV_w6Acf8yemZ-98" edge="1">
          <mxGeometry relative="1" as="geometry">
            <mxPoint x="-224" y="922" as="targetPoint" />
            <mxPoint x="5" y="544" as="sourcePoint" />
            <Array as="points">
              <mxPoint x="186" y="898" />
            </Array>
          </mxGeometry>
        </mxCell>
        <mxCell id="BzNI8jAwV_w6Acf8yemZ-95" value="" style="edgeStyle=orthogonalEdgeStyle;html=1;verticalAlign=bottom;endArrow=open;endSize=8;strokeColor=#ff0000;rounded=0;fontFamily=Helvetica;fontSize=12;fontColor=default;fontStyle=1;exitX=0.75;exitY=0.5;exitDx=0;exitDy=0;exitPerimeter=0;entryX=0;entryY=0.5;entryDx=0;entryDy=0;" parent="1" source="BzNI8jAwV_w6Acf8yemZ-92" target="BzNI8jAwV_w6Acf8yemZ-97" edge="1">
          <mxGeometry relative="1" as="geometry">
            <mxPoint x="265" y="924" as="targetPoint" />
            <mxPoint x="15" y="554" as="sourcePoint" />
            <Array as="points">
              <mxPoint x="220" y="882" />
              <mxPoint x="220" y="897" />
            </Array>
          </mxGeometry>
        </mxCell>
        <mxCell id="BzNI8jAwV_w6Acf8yemZ-100" value="" style="edgeStyle=orthogonalEdgeStyle;rounded=0;orthogonalLoop=1;jettySize=auto;html=1;fontFamily=Helvetica;fontSize=12;fontColor=default;fontStyle=1;entryX=0;entryY=0.5;entryDx=0;entryDy=0;exitX=0.5;exitY=1;exitDx=0;exitDy=0;" parent="1" source="BzNI8jAwV_w6Acf8yemZ-98" target="hoAG8G_czNnAWnfQapLx-21" edge="1">
          <mxGeometry relative="1" as="geometry" />
        </mxCell>
        <mxCell id="BzNI8jAwV_w6Acf8yemZ-101" value="" style="edgeStyle=orthogonalEdgeStyle;rounded=0;orthogonalLoop=1;jettySize=auto;html=1;fontFamily=Helvetica;fontSize=12;fontColor=default;fontStyle=1;entryX=1;entryY=0.5;entryDx=0;entryDy=0;exitX=0.5;exitY=1;exitDx=0;exitDy=0;" parent="1" source="BzNI8jAwV_w6Acf8yemZ-97" target="BzNI8jAwV_w6Acf8yemZ-102" edge="1">
          <mxGeometry relative="1" as="geometry" />
        </mxCell>
        <mxCell id="BzNI8jAwV_w6Acf8yemZ-103" value="" style="edgeStyle=orthogonalEdgeStyle;rounded=0;orthogonalLoop=1;jettySize=auto;html=1;fontFamily=Helvetica;fontSize=12;fontColor=default;fontStyle=1;entryX=0;entryY=0.5;entryDx=0;entryDy=0;exitX=0.5;exitY=1;exitDx=0;exitDy=0;" parent="1" source="BzNI8jAwV_w6Acf8yemZ-102" target="hoAG8G_czNnAWnfQapLx-17" edge="1">
          <mxGeometry relative="1" as="geometry" />
        </mxCell>
        <mxCell id="BzNI8jAwV_w6Acf8yemZ-105" value="" style="edgeStyle=orthogonalEdgeStyle;rounded=0;orthogonalLoop=1;jettySize=auto;html=1;fontFamily=Helvetica;fontSize=12;fontColor=default;fontStyle=1;entryX=1;entryY=0.5;entryDx=0;entryDy=0;exitX=0.5;exitY=1;exitDx=0;exitDy=0;" parent="1" source="hoAG8G_czNnAWnfQapLx-21" target="BzNI8jAwV_w6Acf8yemZ-104" edge="1">
          <mxGeometry relative="1" as="geometry">
            <Array as="points">
              <mxPoint x="-75" y="991" />
            </Array>
          </mxGeometry>
        </mxCell>
        <mxCell id="BzNI8jAwV_w6Acf8yemZ-107" value="" style="edgeStyle=orthogonalEdgeStyle;rounded=0;orthogonalLoop=1;jettySize=auto;html=1;fontFamily=Helvetica;fontSize=12;fontColor=default;fontStyle=1;resizable=1;entryX=1;entryY=0.5;entryDx=0;entryDy=0;exitX=0.5;exitY=1;exitDx=0;exitDy=0;" parent="1" source="hoAG8G_czNnAWnfQapLx-10" target="hoAG8G_czNnAWnfQapLx-19" edge="1">
          <mxGeometry relative="1" as="geometry">
            <mxPoint x="-354" y="1190" as="targetPoint" />
            <mxPoint x="-56" y="1190" as="sourcePoint" />
          </mxGeometry>
        </mxCell>
        <mxCell id="BzNI8jAwV_w6Acf8yemZ-127" value="" style="edgeStyle=orthogonalEdgeStyle;html=1;verticalAlign=bottom;endArrow=open;endSize=8;strokeColor=#ff0000;rounded=0;fontFamily=Helvetica;fontSize=12;fontColor=default;fontStyle=1;exitX=1;exitY=0.5;exitDx=0;exitDy=0;entryX=0.25;entryY=0.5;entryDx=0;entryDy=0;entryPerimeter=0;" parent="1" source="BzNI8jAwV_w6Acf8yemZ-353" target="BzNI8jAwV_w6Acf8yemZ-357" edge="1">
          <mxGeometry relative="1" as="geometry">
            <mxPoint x="-280" y="1411" as="targetPoint" />
            <mxPoint x="-347.75" y="1411" as="sourcePoint" />
          </mxGeometry>
        </mxCell>
        <mxCell id="hoAG8G_czNnAWnfQapLx-50" value="&lt;h3&gt;Handle Payment&lt;/h3&gt;" style="rounded=1;whiteSpace=wrap;html=1;" parent="1" vertex="1">
          <mxGeometry x="-177" y="2120" width="109" height="40" as="geometry" />
        </mxCell>
        <mxCell id="hoAG8G_czNnAWnfQapLx-61" value="" style="ellipse;html=1;shape=endState;fillColor=#000000;strokeColor=#ff0000;rounded=1;align=center;verticalAlign=middle;fontFamily=Helvetica;fontSize=12;fontColor=default;" parent="1" vertex="1">
          <mxGeometry x="24.879999999999995" y="2696" width="30" height="30" as="geometry" />
        </mxCell>
        <mxCell id="hoAG8G_czNnAWnfQapLx-62" value="" style="edgeStyle=orthogonalEdgeStyle;rounded=0;orthogonalLoop=1;jettySize=auto;html=1;fontFamily=Helvetica;fontSize=12;fontColor=default;fontStyle=1;resizable=1;" parent="1" source="hoAG8G_czNnAWnfQapLx-54" target="hoAG8G_czNnAWnfQapLx-61" edge="1">
          <mxGeometry relative="1" as="geometry" />
        </mxCell>
        <mxCell id="BzNI8jAwV_w6Acf8yemZ-141" value="" style="edgeStyle=orthogonalEdgeStyle;html=1;verticalAlign=bottom;endArrow=open;endSize=8;strokeColor=#ff0000;rounded=0;fontFamily=Helvetica;fontSize=12;fontColor=default;fontStyle=1;entryX=0.5;entryY=0;entryDx=0;entryDy=0;exitX=0.5;exitY=1;exitDx=0;exitDy=0;" parent="1" source="KGuSDkZDgbv-KCIdL6Bg-2" target="BzNI8jAwV_w6Acf8yemZ-136" edge="1">
          <mxGeometry relative="1" as="geometry">
            <mxPoint x="-174.51" y="1037" as="targetPoint" />
            <mxPoint x="255" y="1117" as="sourcePoint" />
            <Array as="points">
              <mxPoint x="774" y="1080" />
              <mxPoint x="32" y="1080" />
            </Array>
          </mxGeometry>
        </mxCell>
        <mxCell id="BzNI8jAwV_w6Acf8yemZ-146" value="" style="edgeStyle=orthogonalEdgeStyle;html=1;verticalAlign=bottom;endArrow=open;endSize=8;strokeColor=#ff0000;rounded=0;entryX=0.25;entryY=0.5;entryDx=0;entryDy=0;exitX=1;exitY=0.5;exitDx=0;exitDy=0;entryPerimeter=0;" parent="1" source="hoAG8G_czNnAWnfQapLx-14" target="BzNI8jAwV_w6Acf8yemZ-144" edge="1">
          <mxGeometry relative="1" as="geometry">
            <mxPoint x="-51" y="1329" as="targetPoint" />
            <mxPoint x="-43" y="1262" as="sourcePoint" />
            <Array as="points">
              <mxPoint x="220" y="1268" />
              <mxPoint x="220" y="1230" />
            </Array>
          </mxGeometry>
        </mxCell>
        <mxCell id="BzNI8jAwV_w6Acf8yemZ-147" value="" style="edgeStyle=orthogonalEdgeStyle;html=1;verticalAlign=bottom;endArrow=open;endSize=8;strokeColor=#ff0000;rounded=0;entryX=0.75;entryY=0.5;entryDx=0;entryDy=0;entryPerimeter=0;exitX=1;exitY=0.5;exitDx=0;exitDy=0;" parent="1" source="BzNI8jAwV_w6Acf8yemZ-143" target="BzNI8jAwV_w6Acf8yemZ-144" edge="1">
          <mxGeometry relative="1" as="geometry">
            <mxPoint x="-41" y="1339" as="targetPoint" />
            <mxPoint x="669" y="1262" as="sourcePoint" />
            <Array as="points">
              <mxPoint x="227" y="1199" />
            </Array>
          </mxGeometry>
        </mxCell>
        <mxCell id="BzNI8jAwV_w6Acf8yemZ-151" value="" style="edgeStyle=orthogonalEdgeStyle;rounded=0;orthogonalLoop=1;jettySize=auto;html=1;fontFamily=Helvetica;fontSize=12;fontColor=default;fontStyle=1;entryX=1;entryY=0.5;entryDx=0;entryDy=0;exitX=0.5;exitY=1;exitDx=0;exitDy=0;" parent="1" source="hoAG8G_czNnAWnfQapLx-22" target="BzNI8jAwV_w6Acf8yemZ-150" edge="1">
          <mxGeometry relative="1" as="geometry" />
        </mxCell>
        <mxCell id="BzNI8jAwV_w6Acf8yemZ-154" value="" style="edgeStyle=orthogonalEdgeStyle;rounded=0;orthogonalLoop=1;jettySize=auto;html=1;fontFamily=Helvetica;fontSize=12;fontColor=default;fontStyle=1;entryX=0;entryY=0.5;entryDx=0;entryDy=0;exitX=0.5;exitY=1;exitDx=0;exitDy=0;" parent="1" source="BzNI8jAwV_w6Acf8yemZ-150" target="BzNI8jAwV_w6Acf8yemZ-153" edge="1">
          <mxGeometry relative="1" as="geometry" />
        </mxCell>
        <mxCell id="BzNI8jAwV_w6Acf8yemZ-166" value="" style="edgeStyle=orthogonalEdgeStyle;rounded=0;orthogonalLoop=1;jettySize=auto;html=1;fontFamily=Helvetica;fontSize=12;fontColor=default;fontStyle=1;entryX=0;entryY=0.5;entryDx=0;entryDy=0;exitX=0.5;exitY=1;exitDx=0;exitDy=0;" parent="1" source="BzNI8jAwV_w6Acf8yemZ-149" target="BzNI8jAwV_w6Acf8yemZ-155" edge="1">
          <mxGeometry relative="1" as="geometry">
            <mxPoint x="143" y="1534" as="targetPoint" />
          </mxGeometry>
        </mxCell>
        <mxCell id="BzNI8jAwV_w6Acf8yemZ-167" value="" style="shape=line;html=1;strokeWidth=6;strokeColor=#ff0000;align=center;verticalAlign=middle;fontFamily=Helvetica;fontSize=12;fontColor=default;fontStyle=1;fillColor=default;rotation=-90;" parent="1" vertex="1">
          <mxGeometry x="433" y="1450" width="60" height="10" as="geometry" />
        </mxCell>
        <mxCell id="BzNI8jAwV_w6Acf8yemZ-168" value="" style="edgeStyle=orthogonalEdgeStyle;html=1;verticalAlign=bottom;endArrow=open;endSize=8;strokeColor=#ff0000;rounded=0;fontFamily=Helvetica;fontSize=12;fontColor=default;fontStyle=1;entryX=0;entryY=0.5;entryDx=0;entryDy=0;exitX=0.502;exitY=0.749;exitDx=0;exitDy=0;exitPerimeter=0;" parent="1" source="BzNI8jAwV_w6Acf8yemZ-167" target="BzNI8jAwV_w6Acf8yemZ-157" edge="1">
          <mxGeometry relative="1" as="geometry">
            <mxPoint x="451" y="1433" as="targetPoint" />
          </mxGeometry>
        </mxCell>
        <mxCell id="BzNI8jAwV_w6Acf8yemZ-171" value="" style="edgeStyle=orthogonalEdgeStyle;html=1;verticalAlign=bottom;endArrow=open;endSize=8;strokeColor=#ff0000;rounded=0;fontFamily=Helvetica;fontSize=12;fontColor=default;fontStyle=1;entryX=0.75;entryY=0.5;entryDx=0;entryDy=0;exitX=0.5;exitY=1;exitDx=0;exitDy=0;entryPerimeter=0;" parent="1" source="BzNI8jAwV_w6Acf8yemZ-153" target="BzNI8jAwV_w6Acf8yemZ-167" edge="1">
          <mxGeometry relative="1" as="geometry">
            <mxPoint x="391" y="1430" as="targetPoint" />
            <mxPoint x="310" y="1460" as="sourcePoint" />
            <Array as="points">
              <mxPoint x="361" y="1440" />
            </Array>
          </mxGeometry>
        </mxCell>
        <mxCell id="BzNI8jAwV_w6Acf8yemZ-174" value="" style="edgeStyle=orthogonalEdgeStyle;html=1;verticalAlign=bottom;endArrow=open;endSize=8;strokeColor=#ff0000;rounded=0;fontFamily=Helvetica;fontSize=12;fontColor=default;fontStyle=1;entryX=0.25;entryY=0.5;entryDx=0;entryDy=0;exitX=0.5;exitY=0;exitDx=0;exitDy=0;entryPerimeter=0;" parent="1" source="BzNI8jAwV_w6Acf8yemZ-155" target="BzNI8jAwV_w6Acf8yemZ-167" edge="1">
          <mxGeometry relative="1" as="geometry">
            <mxPoint x="452" y="1465" as="targetPoint" />
            <mxPoint x="341.5" y="1514" as="sourcePoint" />
            <Array as="points">
              <mxPoint x="354" y="1470" />
            </Array>
          </mxGeometry>
        </mxCell>
        <mxCell id="BzNI8jAwV_w6Acf8yemZ-222" value="" style="edgeStyle=orthogonalEdgeStyle;rounded=0;orthogonalLoop=1;jettySize=auto;html=1;fontFamily=Helvetica;fontSize=12;fontColor=default;fontStyle=1;entryX=1;entryY=0.5;entryDx=0;entryDy=0;" parent="1" source="BzNI8jAwV_w6Acf8yemZ-216" target="BzNI8jAwV_w6Acf8yemZ-220" edge="1">
          <mxGeometry relative="1" as="geometry">
            <mxPoint x="40" y="1742.5" as="targetPoint" />
          </mxGeometry>
        </mxCell>
        <mxCell id="BzNI8jAwV_w6Acf8yemZ-226" value="" style="edgeStyle=orthogonalEdgeStyle;rounded=0;orthogonalLoop=1;jettySize=auto;html=1;fontFamily=Helvetica;fontSize=12;fontColor=default;fontStyle=1;entryX=1;entryY=0.5;entryDx=0;entryDy=0;" parent="1" source="BzNI8jAwV_w6Acf8yemZ-217" target="BzNI8jAwV_w6Acf8yemZ-216" edge="1">
          <mxGeometry relative="1" as="geometry">
            <mxPoint x="455" y="1828.5" as="targetPoint" />
          </mxGeometry>
        </mxCell>
        <mxCell id="BzNI8jAwV_w6Acf8yemZ-180" value="no" style="edgeStyle=orthogonalEdgeStyle;html=1;align=left;verticalAlign=bottom;endArrow=open;endSize=8;strokeColor=#ff0000;rounded=0;fontFamily=Helvetica;fontSize=12;fontColor=default;fontStyle=1;entryX=1;entryY=0.5;entryDx=0;entryDy=0;exitX=0.5;exitY=1;exitDx=0;exitDy=0;" parent="1" source="BzNI8jAwV_w6Acf8yemZ-179" target="BzNI8jAwV_w6Acf8yemZ-211" edge="1">
          <mxGeometry x="-0.9442" y="11" relative="1" as="geometry">
            <mxPoint x="461" y="1702" as="targetPoint" />
            <Array as="points">
              <mxPoint x="607" y="2495" />
            </Array>
            <mxPoint as="offset" />
          </mxGeometry>
        </mxCell>
        <mxCell id="BzNI8jAwV_w6Acf8yemZ-228" value="" style="edgeStyle=orthogonalEdgeStyle;html=1;align=left;verticalAlign=bottom;endArrow=open;endSize=8;strokeColor=#ff0000;rounded=0;fontFamily=Helvetica;fontSize=12;fontColor=default;fontStyle=1;entryX=0;entryY=0.5;entryDx=0;entryDy=0;exitX=0.5;exitY=1;exitDx=0;exitDy=0;" parent="1" source="BzNI8jAwV_w6Acf8yemZ-220" target="BzNI8jAwV_w6Acf8yemZ-227" edge="1">
          <mxGeometry x="-1" y="179" relative="1" as="geometry">
            <mxPoint x="-390.62" y="1961" as="targetPoint" />
            <mxPoint x="-10.620000000000005" y="1870" as="sourcePoint" />
            <mxPoint x="160" y="-99" as="offset" />
          </mxGeometry>
        </mxCell>
        <mxCell id="BzNI8jAwV_w6Acf8yemZ-232" value="" style="edgeStyle=orthogonalEdgeStyle;rounded=0;orthogonalLoop=1;jettySize=auto;html=1;fontFamily=Helvetica;fontSize=12;fontColor=default;fontStyle=1;" parent="1" source="BzNI8jAwV_w6Acf8yemZ-187" target="BzNI8jAwV_w6Acf8yemZ-231" edge="1">
          <mxGeometry relative="1" as="geometry" />
        </mxCell>
        <mxCell id="BzNI8jAwV_w6Acf8yemZ-234" value="" style="edgeStyle=orthogonalEdgeStyle;rounded=0;orthogonalLoop=1;jettySize=auto;html=1;fontFamily=Helvetica;fontSize=12;fontColor=default;fontStyle=1;" parent="1" source="BzNI8jAwV_w6Acf8yemZ-231" target="BzNI8jAwV_w6Acf8yemZ-233" edge="1">
          <mxGeometry relative="1" as="geometry" />
        </mxCell>
        <mxCell id="BzNI8jAwV_w6Acf8yemZ-236" value="" style="edgeStyle=orthogonalEdgeStyle;rounded=0;orthogonalLoop=1;jettySize=auto;html=1;fontFamily=Helvetica;fontSize=12;fontColor=default;fontStyle=1;exitX=0.5;exitY=1;exitDx=0;exitDy=0;entryX=0;entryY=0.5;entryDx=0;entryDy=0;" parent="1" source="BzNI8jAwV_w6Acf8yemZ-233" target="BzNI8jAwV_w6Acf8yemZ-235" edge="1">
          <mxGeometry relative="1" as="geometry" />
        </mxCell>
        <mxCell id="BzNI8jAwV_w6Acf8yemZ-242" value="" style="edgeStyle=orthogonalEdgeStyle;html=1;align=left;verticalAlign=bottom;endArrow=open;endSize=8;strokeColor=#ff0000;rounded=0;fontFamily=Helvetica;fontSize=12;fontColor=default;fontStyle=1;exitX=0.5;exitY=1;exitDx=0;exitDy=0;entryX=0.463;entryY=0.657;entryDx=0;entryDy=0;entryPerimeter=0;" parent="1" source="BzNI8jAwV_w6Acf8yemZ-237" target="BzNI8jAwV_w6Acf8yemZ-244" edge="1">
          <mxGeometry x="-0.1538" y="93" relative="1" as="geometry">
            <mxPoint x="-339" y="1940" as="targetPoint" />
            <mxPoint x="538" y="1788" as="sourcePoint" />
            <mxPoint as="offset" />
          </mxGeometry>
        </mxCell>
        <mxCell id="BzNI8jAwV_w6Acf8yemZ-251" value="" style="edgeStyle=orthogonalEdgeStyle;html=1;verticalAlign=bottom;endArrow=open;endSize=8;strokeColor=#ff0000;rounded=0;fontFamily=Helvetica;fontSize=12;fontColor=default;fontStyle=1;entryX=0;entryY=0.5;entryDx=0;entryDy=0;exitX=0.75;exitY=0.5;exitDx=0;exitDy=0;exitPerimeter=0;" parent="1" source="BzNI8jAwV_w6Acf8yemZ-244" edge="1">
          <mxGeometry relative="1" as="geometry">
            <mxPoint x="362" y="2015" as="targetPoint" />
            <mxPoint x="-37" y="2032" as="sourcePoint" />
            <Array as="points">
              <mxPoint x="32" y="2015" />
            </Array>
          </mxGeometry>
        </mxCell>
        <mxCell id="BzNI8jAwV_w6Acf8yemZ-258" value="" style="edgeStyle=orthogonalEdgeStyle;rounded=0;orthogonalLoop=1;jettySize=auto;html=1;fontFamily=Helvetica;fontSize=12;fontColor=default;fontStyle=1;exitX=0.5;exitY=1;exitDx=0;exitDy=0;entryX=1;entryY=0.5;entryDx=0;entryDy=0;" parent="1" source="BzNI8jAwV_w6Acf8yemZ-255" target="BzNI8jAwV_w6Acf8yemZ-257" edge="1">
          <mxGeometry relative="1" as="geometry">
            <mxPoint x="340" y="2350" as="sourcePoint" />
            <Array as="points">
              <mxPoint x="363" y="2166" />
            </Array>
            <mxPoint x="170" y="2170" as="targetPoint" />
          </mxGeometry>
        </mxCell>
        <mxCell id="BzNI8jAwV_w6Acf8yemZ-307" value="" style="edgeStyle=orthogonalEdgeStyle;html=1;align=left;verticalAlign=bottom;endArrow=open;endSize=8;strokeColor=#ff0000;rounded=0;fontFamily=Helvetica;fontSize=12;fontColor=default;fontStyle=1;entryX=0.25;entryY=0.5;entryDx=0;entryDy=0;entryPerimeter=0;exitX=0.5;exitY=0;exitDx=0;exitDy=0;" parent="1" source="BzNI8jAwV_w6Acf8yemZ-257" target="BzNI8jAwV_w6Acf8yemZ-263" edge="1">
          <mxGeometry x="-0.5187" y="-10" relative="1" as="geometry">
            <mxPoint x="-319" y="2147" as="targetPoint" />
            <mxPoint x="-130" y="2260" as="sourcePoint" />
            <Array as="points">
              <mxPoint x="188" y="2100" />
            </Array>
            <mxPoint as="offset" />
          </mxGeometry>
        </mxCell>
        <mxCell id="BzNI8jAwV_w6Acf8yemZ-181" value="yes" style="edgeStyle=orthogonalEdgeStyle;html=1;align=left;verticalAlign=top;endArrow=open;endSize=8;strokeColor=#ff0000;rounded=0;fontFamily=Helvetica;fontSize=12;fontColor=default;fontStyle=1;entryX=1;entryY=0.5;entryDx=0;entryDy=0;" parent="1" source="BzNI8jAwV_w6Acf8yemZ-179" target="BzNI8jAwV_w6Acf8yemZ-311" edge="1">
          <mxGeometry x="-0.2" y="-27" relative="1" as="geometry">
            <mxPoint x="608" y="1753" as="targetPoint" />
            <mxPoint as="offset" />
          </mxGeometry>
        </mxCell>
        <mxCell id="BzNI8jAwV_w6Acf8yemZ-312" value="" style="edgeStyle=orthogonalEdgeStyle;html=1;align=left;verticalAlign=bottom;endArrow=open;endSize=8;strokeColor=#ff0000;rounded=0;fontFamily=Helvetica;fontSize=12;fontColor=default;fontStyle=1;exitX=0.5;exitY=1;exitDx=0;exitDy=0;entryX=0.5;entryY=0;entryDx=0;entryDy=0;" parent="1" source="BzNI8jAwV_w6Acf8yemZ-311" target="BzNI8jAwV_w6Acf8yemZ-213" edge="1">
          <mxGeometry x="-1" y="-194" relative="1" as="geometry">
            <mxPoint x="438" y="1781" as="targetPoint" />
            <mxPoint x="437" y="1748" as="sourcePoint" />
            <mxPoint x="-1" as="offset" />
          </mxGeometry>
        </mxCell>
        <mxCell id="BzNI8jAwV_w6Acf8yemZ-318" value="" style="edgeStyle=orthogonalEdgeStyle;rounded=0;orthogonalLoop=1;jettySize=auto;html=1;fontFamily=Helvetica;fontSize=12;fontColor=default;fontStyle=1;entryX=1;entryY=0.5;entryDx=0;entryDy=0;" parent="1" source="hoAG8G_czNnAWnfQapLx-18" target="BzNI8jAwV_w6Acf8yemZ-317" edge="1">
          <mxGeometry relative="1" as="geometry" />
        </mxCell>
        <mxCell id="BzNI8jAwV_w6Acf8yemZ-256" value="" style="edgeStyle=orthogonalEdgeStyle;rounded=0;orthogonalLoop=1;jettySize=auto;html=1;fontFamily=Helvetica;fontSize=12;fontColor=default;fontStyle=1;exitX=0.5;exitY=1;exitDx=0;exitDy=0;entryX=0;entryY=0.5;entryDx=0;entryDy=0;" parent="1" source="BzNI8jAwV_w6Acf8yemZ-317" target="BzNI8jAwV_w6Acf8yemZ-255" edge="1">
          <mxGeometry relative="1" as="geometry" />
        </mxCell>
        <mxCell id="BzNI8jAwV_w6Acf8yemZ-329" value="yes" style="edgeStyle=orthogonalEdgeStyle;html=1;align=left;verticalAlign=top;endArrow=open;endSize=8;strokeColor=#ff0000;rounded=0;fontFamily=Helvetica;fontSize=12;fontColor=default;fontStyle=1;entryX=1;entryY=0.5;entryDx=0;entryDy=0;" parent="1" source="BzNI8jAwV_w6Acf8yemZ-327" target="hoAG8G_czNnAWnfQapLx-55" edge="1">
          <mxGeometry x="0.5748" y="-29" relative="1" as="geometry">
            <mxPoint x="-360" y="2410" as="targetPoint" />
            <mxPoint as="offset" />
          </mxGeometry>
        </mxCell>
        <mxCell id="BzNI8jAwV_w6Acf8yemZ-335" value="" style="edgeStyle=orthogonalEdgeStyle;html=1;align=left;verticalAlign=top;endArrow=open;endSize=8;strokeColor=#ff0000;rounded=0;fontFamily=Helvetica;fontSize=12;fontColor=default;fontStyle=1;exitX=0.75;exitY=0.5;exitDx=0;exitDy=0;entryX=1;entryY=0.5;entryDx=0;entryDy=0;exitPerimeter=0;" parent="1" source="BzNI8jAwV_w6Acf8yemZ-334" target="BzNI8jAwV_w6Acf8yemZ-321" edge="1">
          <mxGeometry x="-0.4264" y="30" relative="1" as="geometry">
            <mxPoint x="-102" y="2410" as="targetPoint" />
            <mxPoint x="27" y="2410" as="sourcePoint" />
            <mxPoint as="offset" />
          </mxGeometry>
        </mxCell>
        <mxCell id="BzNI8jAwV_w6Acf8yemZ-336" value="" style="edgeStyle=orthogonalEdgeStyle;html=1;align=left;verticalAlign=top;endArrow=open;endSize=8;strokeColor=#ff0000;rounded=0;fontFamily=Helvetica;fontSize=12;fontColor=default;fontStyle=1;exitX=0.25;exitY=0.5;exitDx=0;exitDy=0;entryX=0.62;entryY=0.272;entryDx=0;entryDy=0;exitPerimeter=0;entryPerimeter=0;" parent="1" source="BzNI8jAwV_w6Acf8yemZ-334" target="BzNI8jAwV_w6Acf8yemZ-340" edge="1">
          <mxGeometry x="-0.4264" y="30" relative="1" as="geometry">
            <mxPoint x="169" y="2411" as="targetPoint" />
            <mxPoint x="355" y="2411" as="sourcePoint" />
            <mxPoint as="offset" />
          </mxGeometry>
        </mxCell>
        <mxCell id="BzNI8jAwV_w6Acf8yemZ-343" value="" style="edgeStyle=orthogonalEdgeStyle;html=1;align=left;verticalAlign=top;endArrow=open;endSize=8;strokeColor=#ff0000;rounded=0;fontFamily=Helvetica;fontSize=12;fontColor=default;fontStyle=1;exitX=0.5;exitY=0;exitDx=0;exitDy=0;entryX=0.5;entryY=1;entryDx=0;entryDy=0;" parent="1" source="BzNI8jAwV_w6Acf8yemZ-341" target="BzNI8jAwV_w6Acf8yemZ-337" edge="1">
          <mxGeometry x="-0.4264" y="30" relative="1" as="geometry">
            <mxPoint x="29" y="2411" as="targetPoint" />
            <mxPoint x="126" y="2411" as="sourcePoint" />
            <mxPoint as="offset" />
          </mxGeometry>
        </mxCell>
        <mxCell id="BzNI8jAwV_w6Acf8yemZ-348" value="" style="edgeStyle=orthogonalEdgeStyle;html=1;align=left;verticalAlign=bottom;endArrow=open;endSize=8;strokeColor=#ff0000;rounded=0;fontFamily=Helvetica;fontSize=12;fontColor=default;fontStyle=1;exitX=0.5;exitY=1;exitDx=0;exitDy=0;entryX=1;entryY=0.5;entryDx=0;entryDy=0;" parent="1" source="Tc9TYvNH5LjF7Kcl3xUn-1" target="Tc9TYvNH5LjF7Kcl3xUn-4" edge="1">
          <mxGeometry x="1" y="-400" relative="1" as="geometry">
            <mxPoint x="59" y="2894" as="targetPoint" />
            <mxPoint x="60" y="2819" as="sourcePoint" />
            <mxPoint x="286" y="383" as="offset" />
            <Array as="points">
              <mxPoint x="516" y="2339" />
            </Array>
          </mxGeometry>
        </mxCell>
        <mxCell id="BzNI8jAwV_w6Acf8yemZ-349" value="" style="edgeLabel;html=1;align=center;verticalAlign=middle;resizable=0;points=[];strokeColor=default;fontFamily=Helvetica;fontSize=12;fontColor=default;fontStyle=1;fillColor=default;" parent="BzNI8jAwV_w6Acf8yemZ-348" vertex="1" connectable="0">
          <mxGeometry x="1" y="-394" relative="1" as="geometry">
            <mxPoint x="280" y="378" as="offset" />
          </mxGeometry>
        </mxCell>
        <mxCell id="BzNI8jAwV_w6Acf8yemZ-124" value="" style="edgeStyle=orthogonalEdgeStyle;html=1;verticalAlign=bottom;endArrow=open;endSize=8;strokeColor=#ff0000;rounded=0;fontFamily=Helvetica;fontSize=12;fontColor=default;fontStyle=1;exitX=0.5;exitY=1;exitDx=0;exitDy=0;entryX=0.5;entryY=0;entryDx=0;entryDy=0;" parent="1" source="hoAG8G_czNnAWnfQapLx-13" target="hoAG8G_czNnAWnfQapLx-71" edge="1">
          <mxGeometry relative="1" as="geometry">
            <mxPoint x="-621" y="1253" as="targetPoint" />
            <mxPoint x="-621" y="1220" as="sourcePoint" />
          </mxGeometry>
        </mxCell>
        <mxCell id="z7cx39EKcdba8W-C4-ha-1" value="&lt;span style=&quot;font-size: 17px;&quot;&gt;Administration&lt;/span&gt;" style="swimlane;whiteSpace=wrap;html=1;startSize=30;movable=1;resizable=1;rotatable=1;deletable=1;editable=1;locked=0;connectable=1;" parent="1" vertex="1">
          <mxGeometry x="689" y="129" width="172" height="2601" as="geometry" />
        </mxCell>
        <mxCell id="z7cx39EKcdba8W-C4-ha-6" value="" style="edgeStyle=orthogonalEdgeStyle;rounded=0;orthogonalLoop=1;jettySize=auto;html=1;fontFamily=Helvetica;fontSize=12;fontColor=default;fontStyle=1;entryX=0;entryY=0.5;entryDx=0;entryDy=0;" parent="z7cx39EKcdba8W-C4-ha-1" edge="1">
          <mxGeometry relative="1" as="geometry">
            <mxPoint x="180" y="592" as="sourcePoint" />
          </mxGeometry>
        </mxCell>
        <mxCell id="z7cx39EKcdba8W-C4-ha-11" value="" style="edgeStyle=orthogonalEdgeStyle;html=1;verticalAlign=bottom;endArrow=open;endSize=8;strokeColor=#ff0000;rounded=0;fontFamily=Helvetica;fontSize=12;fontColor=default;fontStyle=1;entryX=0;entryY=0.5;entryDx=0;entryDy=0;exitX=0.502;exitY=0.749;exitDx=0;exitDy=0;exitPerimeter=0;" parent="z7cx39EKcdba8W-C4-ha-1" edge="1">
          <mxGeometry relative="1" as="geometry">
            <mxPoint x="127.99999999999955" y="1086" as="targetPoint" />
          </mxGeometry>
        </mxCell>
        <mxCell id="z7cx39EKcdba8W-C4-ha-14" value="" style="edgeStyle=orthogonalEdgeStyle;rounded=0;orthogonalLoop=1;jettySize=auto;html=1;fontFamily=Helvetica;fontSize=12;fontColor=default;fontStyle=1;" parent="z7cx39EKcdba8W-C4-ha-1" edge="1">
          <mxGeometry relative="1" as="geometry">
            <mxPoint x="352.5" y="1350" as="sourcePoint" />
          </mxGeometry>
        </mxCell>
        <mxCell id="KGuSDkZDgbv-KCIdL6Bg-2" value="&lt;h3&gt;Verify provided documents&lt;/h3&gt;" style="rounded=1;whiteSpace=wrap;html=1;" parent="z7cx39EKcdba8W-C4-ha-1" vertex="1">
          <mxGeometry x="22" y="899" width="125" height="40" as="geometry" />
        </mxCell>
        <mxCell id="KGuSDkZDgbv-KCIdL6Bg-3" value="" style="edgeStyle=orthogonalEdgeStyle;rounded=0;orthogonalLoop=1;jettySize=auto;html=1;" parent="1" source="hoAG8G_czNnAWnfQapLx-17" target="KGuSDkZDgbv-KCIdL6Bg-2" edge="1">
          <mxGeometry relative="1" as="geometry" />
        </mxCell>
        <mxCell id="KGuSDkZDgbv-KCIdL6Bg-8" value="" style="edgeStyle=orthogonalEdgeStyle;rounded=0;orthogonalLoop=1;jettySize=auto;html=1;entryX=0;entryY=0.5;entryDx=0;entryDy=0;exitX=0.5;exitY=1;exitDx=0;exitDy=0;" parent="1" source="BzNI8jAwV_w6Acf8yemZ-259" target="hoAG8G_czNnAWnfQapLx-50" edge="1">
          <mxGeometry relative="1" as="geometry">
            <mxPoint x="-454.01" y="2217.0000000000005" as="targetPoint" />
          </mxGeometry>
        </mxCell>
        <mxCell id="eb62E3FtDdTzRUoGH38d-2" value="" style="edgeStyle=orthogonalEdgeStyle;rounded=0;orthogonalLoop=1;jettySize=auto;html=1;entryX=0.75;entryY=0.5;entryDx=0;entryDy=0;entryPerimeter=0;strokeColor=#ff2424;endArrow=open;endFill=0;" parent="1" source="BzNI8jAwV_w6Acf8yemZ-49" target="eb62E3FtDdTzRUoGH38d-3" edge="1">
          <mxGeometry relative="1" as="geometry">
            <mxPoint x="312" y="483" as="targetPoint" />
            <Array as="points">
              <mxPoint x="600" y="516" />
              <mxPoint x="600" y="424" />
            </Array>
          </mxGeometry>
        </mxCell>
        <mxCell id="eb62E3FtDdTzRUoGH38d-8" value="no" style="edgeStyle=orthogonalEdgeStyle;html=1;align=left;verticalAlign=bottom;endArrow=open;endSize=8;strokeColor=#ff0000;rounded=0;fontFamily=Helvetica;fontSize=12;fontColor=default;fontStyle=1;entryX=1;entryY=0.5;entryDx=0;entryDy=0;movable=1;resizable=1;rotatable=1;deletable=1;editable=1;locked=0;connectable=1;exitX=0;exitY=0.5;exitDx=0;exitDy=0;" parent="1" source="BzNI8jAwV_w6Acf8yemZ-45" target="eb62E3FtDdTzRUoGH38d-9" edge="1">
          <mxGeometry x="-0.104" y="-6" relative="1" as="geometry">
            <mxPoint x="-111" y="524" as="targetPoint" />
            <mxPoint x="-280" y="521" as="sourcePoint" />
            <mxPoint as="offset" />
          </mxGeometry>
        </mxCell>
        <mxCell id="eb62E3FtDdTzRUoGH38d-9" value="&lt;h3&gt;Request correction&lt;/h3&gt;" style="rounded=1;whiteSpace=wrap;html=1;movable=1;resizable=1;rotatable=1;deletable=1;editable=1;locked=0;connectable=1;" parent="1" vertex="1">
          <mxGeometry x="-188" y="497" width="120" height="40" as="geometry" />
        </mxCell>
        <mxCell id="eb62E3FtDdTzRUoGH38d-14" value="" style="edgeStyle=orthogonalEdgeStyle;rounded=0;orthogonalLoop=1;jettySize=auto;html=1;entryX=0.75;entryY=0.5;entryDx=0;entryDy=0;entryPerimeter=0;strokeColor=#ff2424;endArrow=open;endFill=0;exitX=0;exitY=0.5;exitDx=0;exitDy=0;" parent="1" source="eb62E3FtDdTzRUoGH38d-9" target="eb62E3FtDdTzRUoGH38d-12" edge="1">
          <mxGeometry relative="1" as="geometry">
            <mxPoint x="-810" y="520.5" as="sourcePoint" />
            <mxPoint x="-730" y="487.5" as="targetPoint" />
            <Array as="points">
              <mxPoint x="-188" y="521" />
              <mxPoint x="-510" y="521" />
              <mxPoint x="-510" y="420" />
            </Array>
          </mxGeometry>
        </mxCell>
        <mxCell id="eb62E3FtDdTzRUoGH38d-19" value="" style="edgeStyle=orthogonalEdgeStyle;html=1;align=left;verticalAlign=top;endArrow=open;endSize=8;strokeColor=#ff0000;rounded=0;fontFamily=Helvetica;fontSize=12;fontColor=default;fontStyle=1;entryX=0;entryY=0.5;entryDx=0;entryDy=0;exitX=1;exitY=0.5;exitDx=0;exitDy=0;" parent="1" source="hoAG8G_czNnAWnfQapLx-50" target="eb62E3FtDdTzRUoGH38d-15" edge="1">
          <mxGeometry x="-1" y="-81" relative="1" as="geometry">
            <mxPoint x="-357" y="2280" as="targetPoint" />
            <mxPoint x="-19" y="-2" as="offset" />
            <mxPoint x="-34.99999999999977" y="2141.4680000000003" as="sourcePoint" />
          </mxGeometry>
        </mxCell>
        <mxCell id="eb62E3FtDdTzRUoGH38d-23" value="" style="edgeStyle=orthogonalEdgeStyle;rounded=0;orthogonalLoop=1;jettySize=auto;html=1;entryX=0;entryY=0.5;entryDx=0;entryDy=0;" parent="1" source="eb62E3FtDdTzRUoGH38d-20" target="BzNI8jAwV_w6Acf8yemZ-333" edge="1">
          <mxGeometry relative="1" as="geometry" />
        </mxCell>
        <mxCell id="eb62E3FtDdTzRUoGH38d-20" value="&lt;h3&gt;Generate payment reference&lt;/h3&gt;" style="rounded=1;whiteSpace=wrap;html=1;" parent="1" vertex="1">
          <mxGeometry x="13" y="2196" width="134" height="38" as="geometry" />
        </mxCell>
        <mxCell id="eb62E3FtDdTzRUoGH38d-21" value="yes" style="edgeStyle=orthogonalEdgeStyle;html=1;align=left;verticalAlign=top;endArrow=open;endSize=8;strokeColor=#ff0000;rounded=0;fontFamily=Helvetica;fontSize=12;fontColor=default;fontStyle=1;entryX=0.5;entryY=0;entryDx=0;entryDy=0;exitX=1;exitY=0.5;exitDx=0;exitDy=0;" parent="1" source="eb62E3FtDdTzRUoGH38d-15" target="eb62E3FtDdTzRUoGH38d-20" edge="1">
          <mxGeometry x="-0.8098" relative="1" as="geometry">
            <mxPoint x="-357" y="2280" as="targetPoint" />
            <mxPoint as="offset" />
            <mxPoint x="-280" y="2279" as="sourcePoint" />
          </mxGeometry>
        </mxCell>
        <mxCell id="eb62E3FtDdTzRUoGH38d-17" value="no" style="edgeStyle=orthogonalEdgeStyle;html=1;align=left;verticalAlign=bottom;endArrow=open;endSize=8;strokeColor=#ff0000;rounded=0;fontFamily=Helvetica;fontSize=12;fontColor=default;fontStyle=1;exitX=0.5;exitY=1;exitDx=0;exitDy=0;entryX=1;entryY=0.5;entryDx=0;entryDy=0;" parent="1" source="eb62E3FtDdTzRUoGH38d-15" target="oMoq9WBIbPPZ0b10xzmk-1" edge="1">
          <mxGeometry x="-0.6158" y="-12" relative="1" as="geometry">
            <mxPoint x="-230.00000000000023" y="2202" as="targetPoint" />
            <mxPoint x="1" as="offset" />
          </mxGeometry>
        </mxCell>
        <mxCell id="oMoq9WBIbPPZ0b10xzmk-7" value="" style="edgeStyle=orthogonalEdgeStyle;html=1;align=left;verticalAlign=bottom;endArrow=open;endSize=8;strokeColor=#ff0000;rounded=0;fontFamily=Helvetica;fontSize=12;fontColor=default;fontStyle=1;exitX=0.5;exitY=1;exitDx=0;exitDy=0;entryX=0.375;entryY=0.292;entryDx=0;entryDy=0;entryPerimeter=0;" parent="1" source="oMoq9WBIbPPZ0b10xzmk-1" target="BzNI8jAwV_w6Acf8yemZ-340" edge="1">
          <mxGeometry x="-1" y="-56" relative="1" as="geometry">
            <mxPoint x="-105" y="2309" as="targetPoint" />
            <mxPoint x="-22" y="-5" as="offset" />
            <mxPoint x="-258" y="2299" as="sourcePoint" />
            <Array as="points">
              <mxPoint x="-445" y="2400" />
              <mxPoint x="17" y="2400" />
            </Array>
          </mxGeometry>
        </mxCell>
        <mxCell id="Tc9TYvNH5LjF7Kcl3xUn-2" value="" style="edgeStyle=orthogonalEdgeStyle;html=1;align=left;verticalAlign=bottom;endArrow=open;endSize=8;strokeColor=#ff0000;rounded=0;fontFamily=Helvetica;fontSize=12;fontColor=default;fontStyle=1;exitX=0.5;exitY=1;exitDx=0;exitDy=0;entryX=0.5;entryY=0;entryDx=0;entryDy=0;" edge="1" parent="1" source="hoAG8G_czNnAWnfQapLx-12" target="Tc9TYvNH5LjF7Kcl3xUn-1">
          <mxGeometry x="1" y="-400" relative="1" as="geometry">
            <mxPoint x="79" y="2459" as="targetPoint" />
            <mxPoint x="526" y="2041" as="sourcePoint" />
            <mxPoint x="286" y="383" as="offset" />
            <Array as="points" />
          </mxGeometry>
        </mxCell>
        <mxCell id="Tc9TYvNH5LjF7Kcl3xUn-1" value="&lt;h3 style=&quot;line-height: 20%;&quot;&gt;Select an option&lt;/h3&gt;&lt;h3 style=&quot;line-height: 20%;&quot;&gt;(Guardian,Police,&lt;/h3&gt;&lt;h3 style=&quot;line-height: 20%;&quot;&gt;Ambulance)&lt;/h3&gt;" style="rounded=1;whiteSpace=wrap;html=1;align=center;" vertex="1" parent="1">
          <mxGeometry x="431" y="2123" width="170" height="60" as="geometry" />
        </mxCell>
        <mxCell id="Tc9TYvNH5LjF7Kcl3xUn-12" value="" style="edgeStyle=orthogonalEdgeStyle;html=1;align=left;verticalAlign=bottom;endArrow=open;endSize=8;strokeColor=#ff0000;rounded=0;fontFamily=Helvetica;fontSize=12;fontColor=default;fontStyle=1;exitX=0.5;exitY=1;exitDx=0;exitDy=0;entryX=0;entryY=0.5;entryDx=0;entryDy=0;" edge="1" parent="1" source="Tc9TYvNH5LjF7Kcl3xUn-14" target="Tc9TYvNH5LjF7Kcl3xUn-9">
          <mxGeometry x="1" y="-400" relative="1" as="geometry">
            <mxPoint x="-1015" y="2934" as="targetPoint" />
            <mxPoint x="-1014" y="2859" as="sourcePoint" />
            <mxPoint x="286" y="383" as="offset" />
            <Array as="points">
              <mxPoint x="-537" y="2427" />
            </Array>
          </mxGeometry>
        </mxCell>
        <mxCell id="Tc9TYvNH5LjF7Kcl3xUn-13" value="" style="edgeLabel;html=1;align=center;verticalAlign=middle;resizable=0;points=[];strokeColor=default;fontFamily=Helvetica;fontSize=12;fontColor=default;fontStyle=1;fillColor=default;" vertex="1" connectable="0" parent="Tc9TYvNH5LjF7Kcl3xUn-12">
          <mxGeometry x="1" y="-394" relative="1" as="geometry">
            <mxPoint x="280" y="378" as="offset" />
          </mxGeometry>
        </mxCell>
        <mxCell id="Tc9TYvNH5LjF7Kcl3xUn-14" value="&lt;h3 style=&quot;line-height: 2.808px;&quot;&gt;Select an option&lt;/h3&gt;&lt;h3 style=&quot;line-height: 2.808px;&quot;&gt;(Guardian,Police,&lt;/h3&gt;&lt;h3 style=&quot;line-height: 2.808px;&quot;&gt;Ambulance)&lt;/h3&gt;" style="rounded=1;whiteSpace=wrap;html=1;" vertex="1" parent="1">
          <mxGeometry x="-606" y="2116.5" width="137.5" height="51" as="geometry" />
        </mxCell>
        <mxCell id="Tc9TYvNH5LjF7Kcl3xUn-22" value="" style="edgeStyle=orthogonalEdgeStyle;html=1;align=left;verticalAlign=bottom;endArrow=open;endSize=8;strokeColor=#ff0000;rounded=0;fontFamily=Helvetica;fontSize=12;fontColor=default;fontStyle=1;exitX=0.5;exitY=1;exitDx=0;exitDy=0;entryX=0.5;entryY=0;entryDx=0;entryDy=0;" edge="1" parent="1" source="Tc9TYvNH5LjF7Kcl3xUn-9" target="Tc9TYvNH5LjF7Kcl3xUn-21">
          <mxGeometry x="1" y="-400" relative="1" as="geometry">
            <mxPoint x="119" y="2647" as="targetPoint" />
            <mxPoint x="132" y="2570" as="sourcePoint" />
            <mxPoint x="286" y="383" as="offset" />
          </mxGeometry>
        </mxCell>
        <mxCell id="Tc9TYvNH5LjF7Kcl3xUn-23" value="" style="edgeLabel;html=1;align=center;verticalAlign=middle;resizable=0;points=[];strokeColor=default;fontFamily=Helvetica;fontSize=12;fontColor=default;fontStyle=1;fillColor=default;" vertex="1" connectable="0" parent="Tc9TYvNH5LjF7Kcl3xUn-22">
          <mxGeometry x="1" y="-394" relative="1" as="geometry">
            <mxPoint x="280" y="378" as="offset" />
          </mxGeometry>
        </mxCell>
        <mxCell id="Tc9TYvNH5LjF7Kcl3xUn-24" value="" style="edgeStyle=orthogonalEdgeStyle;html=1;align=left;verticalAlign=top;endArrow=open;endSize=8;strokeColor=#ff0000;rounded=0;fontFamily=Helvetica;fontSize=12;fontColor=default;fontStyle=1;entryX=0.5;entryY=0;entryDx=0;entryDy=0;exitX=0.5;exitY=1;exitDx=0;exitDy=0;" edge="1" parent="1" source="BzNI8jAwV_w6Acf8yemZ-252" target="Tc9TYvNH5LjF7Kcl3xUn-14">
          <mxGeometry x="0.138" y="-30" relative="1" as="geometry">
            <mxPoint x="-323" y="2094" as="targetPoint" />
            <mxPoint x="-294" y="2095" as="sourcePoint" />
            <mxPoint as="offset" />
          </mxGeometry>
        </mxCell>
      </root>
    </mxGraphModel>
  </diagram>
</mxfile>
